<?xml version="1.0" encoding="UTF-8"?>
<svg xmlns="http://www.w3.org/2000/svg" xmlns:xlink="http://www.w3.org/1999/xlink" width="540pt" height="396pt" viewBox="0 0 540 396" version="1.1">
<g id="surface1">
<path id="L4H" style="fill:none;stroke-width:0.75;stroke-linecap:round;stroke-linejoin:round;stroke:rgb(0%,0%,0%);stroke-opacity:1;stroke-miterlimit:3;" d="M 0.000668985 396.649337 L 96.301547 396.649337 " transform="matrix(0.999999,0,0,0.997983,146.307925,-282.755491)"/>
<path id="L2" style="fill:none;stroke-width:0.75;stroke-linecap:round;stroke-linejoin:round;stroke:rgb(0%,0%,0%);stroke-opacity:1;stroke-miterlimit:3;" d="M -0.0000537782 396.648548 L 94.179729 396.648548 " transform="matrix(0.999999,0,0,0.997983,18.375054,-188.44611)"/>
<path id="L1" style="fill:none;stroke-width:0.75;stroke-linecap:round;stroke-linejoin:round;stroke:rgb(0%,0%,0%);stroke-opacity:1;stroke-miterlimit:3;" d="M 94.179729 396.65004 L -0.0000537782 396.65004 " transform="matrix(0.999999,0,0,0.997983,18.375054,-210.900725)"/>
<path id="L2toL4" style="fill:none;stroke-width:0.75;stroke-linecap:round;stroke-linejoin:round;stroke:rgb(0%,0%,0%);stroke-opacity:1;stroke-miterlimit:3;" d="M -0.00207423 396.650411 L 47.728842 396.64925 " transform="matrix(0.707106,-0.70568,0.707106,0.70568,-167.917758,-72.503655)"/>
<path id="L4V" style="fill:none;stroke-width:0.75;stroke-linecap:round;stroke-linejoin:round;stroke:rgb(0%,0%,0%);stroke-opacity:1;stroke-miterlimit:3;" d="M 0.00121335 396.648763 L 60.748749 396.648763 " transform="matrix(0.000000000000000061,-0.997983,0.999999,0.000000000000000061,-250.343675,173.723867)"/>
<path id="L3toL1" style="fill:none;stroke-width:0.75;stroke-linecap:round;stroke-linejoin:round;stroke:rgb(0%,0%,0%);stroke-opacity:1;stroke-miterlimit:3;" d="M 16.722096 396.64847 L  -0.000472636 396.65008 " transform="matrix(0.672672,-0.738447,0.739939,0.671316,-180.940745,-81.32762)"/>
<path id="L3V" style="fill:none;stroke-width:0.75;stroke-linecap:round;stroke-linejoin:round;stroke:rgb(0%,0%,0%);stroke-opacity:1;stroke-miterlimit:3;" d="M 86.61961 396.64874 L -0.000426935 396.64874 " transform="matrix(0.000000000000000061,-0.997983,0.999999,0.000000000000000061,-272.843653,172.601136)"/>
<path id="L3H" style="fill:none;stroke-width:0.75;stroke-linecap:round;stroke-linejoin:round;stroke:rgb(0%,0%,0%);stroke-opacity:1;stroke-miterlimit:3;" d="M 118.801547 396.649562 L 0.000646295 396.649562 " transform="matrix(0.999999,0,0,0.997983,123.807947,-309.701028)"/>
<path id="L2toL17" style="fill:none;stroke-width:0.75;stroke-linecap:round;stroke-linejoin:round;stroke:rgb(0%,0%,0%);stroke-opacity:1;stroke-miterlimit:3;" d="M 0.00063495 396.648548 L 47.250683 396.648548 " transform="matrix(0.999999,0,0,0.997983,112.557959,-188.44611)"/>
<path id="L17" style="fill:none;stroke-width:0.75;stroke-linecap:round;stroke-linejoin:round;stroke:rgb(0%,0%,0%);stroke-opacity:1;stroke-miterlimit:3;" d="M 0.000682599 396.648548 L 87.750771 396.648548 " transform="matrix(0.999999,0,0,0.997983,159.807911,-188.44611)"/>
<path id="L17toL19" style="fill:none;stroke-width:0.75;stroke-linecap:round;stroke-linejoin:round;stroke:rgb(0%,0%,0%);stroke-opacity:1;stroke-miterlimit:3;" d="M 0.00077109 396.648548 L 47.621913 396.648548 " transform="matrix(0.999999,0,0,0.997983,247.557823,-188.44611)"/>
<path id="L19" style="fill:none;stroke-width:0.75;stroke-linecap:round;stroke-linejoin:round;stroke:rgb(0%,0%,0%);stroke-opacity:1;stroke-miterlimit:3;" d="M 0.000819117 396.648548 L 80.629807 396.648548 " transform="matrix(0.999999,0,0,0.997983,295.182775,-188.44611)"/>
<path id="L19toL10" style="fill:none;stroke-width:0.75;stroke-linecap:round;stroke-linejoin:round;stroke:rgb(0%,0%,0%);stroke-opacity:1;stroke-miterlimit:3;" d="M 0.000900423 396.648548 L 67.500968 396.648548 " transform="matrix(0.999999,0,0,0.997983,375.807693,-188.44611)"/>
<path id="L10" style="fill:none;stroke-width:0.75;stroke-linecap:round;stroke-linejoin:round;stroke:rgb(0%,0%,0%);stroke-opacity:1;stroke-miterlimit:3;" d="M 0.000968493 396.648548 L 78.368235 396.648548 " transform="matrix(0.999999,0,0,0.997983,443.307625,-188.44611)"/>
<path id="L18toL1" style="fill:none;stroke-width:0.75;stroke-linecap:round;stroke-linejoin:round;stroke:rgb(0%,0%,0%);stroke-opacity:1;stroke-miterlimit:3;" d="M 47.250683 396.65004 L 0.00063495 396.65004 " transform="matrix(0.999999,0,0,0.997983,112.557959,-210.900725)"/>
<path id="L18" style="fill:none;stroke-width:0.75;stroke-linecap:round;stroke-linejoin:round;stroke:rgb(0%,0%,0%);stroke-opacity:1;stroke-miterlimit:3;" d="M 87.750771 396.65004 L 0.000682599 396.65004 " transform="matrix(0.999999,0,0,0.997983,159.807911,-210.900725)"/>
<path id="L20toL18" style="fill:none;stroke-width:0.75;stroke-linecap:round;stroke-linejoin:round;stroke:rgb(0%,0%,0%);stroke-opacity:1;stroke-miterlimit:3;" d="M 0.00077109 396.65004 L 47.621913 396.65004 " transform="matrix(0.999999,0,0,0.997983,247.557823,-210.900725)"/>
<path id="L20" style="fill:none;stroke-width:0.75;stroke-linecap:round;stroke-linejoin:round;stroke:rgb(0%,0%,0%);stroke-opacity:1;stroke-miterlimit:3;" d="M 0.000819117 396.65004 L 80.629807 396.65004 " transform="matrix(0.999999,0,0,0.997983,295.182775,-210.900725)"/>
<path id="L9toL20" style="fill:none;stroke-width:0.75;stroke-linecap:round;stroke-linejoin:round;stroke:rgb(0%,0%,0%);stroke-opacity:1;stroke-miterlimit:3;" d="M 0.000900423 396.65004 L 67.500968 396.65004 " transform="matrix(0.999999,0,0,0.997983,375.807693,-210.900725)"/>
<path id="L9" style="fill:none;stroke-width:0.75;stroke-linecap:round;stroke-linejoin:round;stroke:rgb(0%,0%,0%);stroke-opacity:1;stroke-miterlimit:3;" d="M 78.368235  396.65004 L 0.000968493 396.65004 " transform="matrix(0.999999,0,0,0.997983,443.307625,-210.900725)"/>
<path id="L7toL3" style="fill:none;stroke-width:0.75;stroke-linecap:round;stroke-linejoin:round;stroke:rgb(0%,0%,0%);stroke-opacity:1;stroke-miterlimit:3;" d="M 51.000818 396.649562 L 0.000766552 396.649562 " transform="matrix(0.999999,0,0,0.997983,243.057827,-309.701028)"/>
<path id="L7H" style="fill:none;stroke-width:0.75;stroke-linecap:round;stroke-linejoin:round;stroke:rgb(0%,0%,0%);stroke-opacity:1;stroke-miterlimit:3;" d="M 131.25095 396.649562 L 0.000817983 396.649562 " transform="matrix(0.999999,0,0,0.997983,294.057776,-309.701028)"/>
<path id="L7V" style="fill:none;stroke-width:0.75;stroke-linecap:round;stroke-linejoin:round;stroke:rgb(0%,0%,0%);stroke-opacity:1;stroke-miterlimit:3;" d="M 88.128459 396.65105 L 0.00147594 396.65105 " transform="matrix(0.000000000000000061,0.997983,-0.999999,0.000000000000000061,821.959243,86.150871)"/>
<path id="L4toL8" style="fill:none;stroke-width:0.75;stroke-linecap:round;stroke-linejoin:round;stroke:rgb(0%,0%,0%);stroke-opacity:1;stroke-miterlimit:3;" d="M 0.000764283 396.649337 L 58.500823 396.649337 " transform="matrix(0.999999,0,0,0.997983,240.807829,-282.755491)"/>
<path id="L8H" style="fill:none;stroke-width:0.75;stroke-linecap:round;stroke-linejoin:round;stroke:rgb(0%,0%,0%);stroke-opacity:1;stroke-miterlimit:3;" d="M 0.000823277 396.649337 L 94.500919 396.649337 " transform="matrix(0.999999,0,0,0.997983,299.30777,-282.755491)"/>
<path id="L8V" style="fill:none;stroke-width:0.75;stroke-linecap:round;stroke-linejoin:round;stroke:rgb(0%,0%,0%);stroke-opacity:1;stroke-miterlimit:3;" d="M 0.00125065 396.651081 L 60.748787 396.651081 " transform="matrix(0.000000000000000061,0.997983,-0.999999,0.000000000000000061,790.459275,113.096408)"/>
<path id="L9toL7" style="fill:none;stroke-width:0.75;stroke-linecap:round;stroke-linejoin:round;stroke:rgb(0%,0%,0%);stroke-opacity:1;stroke-miterlimit:3;" d="M 0.000929221 396.651476 L 21.030279 396.650169 " transform="matrix(0.855914,0.516073,-0.517116,0.854189,630.422437,-164.71807)"/>
<path id="L8toL10" style="fill:none;stroke-width:0.75;stroke-linecap:round;stroke-linejoin:round;stroke:rgb(0%,0%,0%);stroke-opacity:1;stroke-miterlimit:3;" d="M 0.000948373 396.650323 L 59.9106 396.648421 " transform="matrix(0.826226,0.562201,-0.563337,0.824561,617.25545,-153.340067)"/>
<path id="L23" style="fill:none;stroke-width:0.75;stroke-linecap:round;stroke-linejoin:round;stroke:rgb(0%,0%,0%);stroke-opacity:1;stroke-miterlimit:3;" d="M 0.00177158 396.651218 L 45.89904 396.651218 " transform="matrix(0.000000000000000061,0.997983,-0.999999,0.000000000000000061,655.459411,128.814638)"/>
<path id="L24" style="fill:none;stroke-width:0.75;stroke-linecap:round;stroke-linejoin:round;stroke:rgb(0%,0%,0%);stroke-opacity:1;stroke-miterlimit:3;" d="M 45.89904 396.651193 L 0.00177158 396.651193 " transform="matrix(0.000000000000000061,0.997983,-0.999999,0.000000000000000061,680.209386,128.814638)"/>
<path id="L24toL8" style="fill:none;stroke-width:0.75;stroke-linecap:round;stroke-linejoin:round;stroke:rgb(0%,0%,0%);stroke-opacity:1;stroke-miterlimit:3;" d="M -0.000343862 396.648175 L 22.271132 396.650586 " transform="matrix(0.707106,-0.70568,0.707106,0.70568,3.082599,-151.094606)"/>
<path id="L17toL24" style="fill:none;stroke-width:0.75;stroke-linecap:round;stroke-linejoin:round;stroke:rgb(0%,0%,0%);stroke-opacity:1;stroke-miterlimit:3;" d="M -0.000114479 396.647494 L 48.738985 396.649143 " transform="matrix(0.738684,-0.672691,0.67405,0.737195,-19.805608,-85.004188)"/>
<path id="L5toL3" style="fill:none;stroke-width:0.75;stroke-linecap:round;stroke-linejoin:round;stroke:rgb(0%,0%,0%);stroke-opacity:1;stroke-miterlimit:3;" d="M -0.000439119 396.650495 L 23.077472 396.650295 " transform="matrix(-0.731055,0.680941,-0.682317,-0.729581,530.574537,359.822722)"/>
<path id="L23toL19" style="fill:none;stroke-width:0.75;stroke-linecap:round;stroke-linejoin:round;stroke:rgb(0%,0%,0%);stroke-opacity:1;stroke-miterlimit:3;" d="M 0.0000650695 396.650903 L 49.011309 396.648999 " transform="matrix(0.742151,0.66888,-0.670232,0.740654,524.656543,-119.160152)"/>
<path id="L5" style="fill:none;stroke-width:0.75;stroke-linecap:round;stroke-linejoin:round;stroke:rgb(0%,0%,0%);stroke-opacity:1;stroke-miterlimit:3;" d="M 0.00191247 396.651216 L 52.200955 396.651216 " transform="matrix(0.000000000000000061,0.997983,-0.999999,0.000000000000000061,656.58441,18.337935)"/>
<path id="L6" style="fill:none;stroke-width:0.75;stroke-linecap:round;stroke-linejoin:round;stroke:rgb(0%,0%,0%);stroke-opacity:1;stroke-miterlimit:3;" d="M 56.698308 396.651193 L 0.00191247 396.651193 " transform="matrix(0.000000000000000061,0.997983,-0.999999,0.000000000000000061,680.209386,18.337935)"/>
<path id="L4toL23" style="fill:none;stroke-width:0.75;stroke-linecap:round;stroke-linejoin:round;stroke:rgb(0%,0%,0%);stroke-opacity:1;stroke-miterlimit:3;" d="M -0.000483564 396.6483 L 22.590833 396.651918 " transform="matrix(0.716994,0.695673,-0.697078,0.715548,519.104549,-170.726925)"/>
<path id="L4toL6" style="fill:none;stroke-width:0.75;stroke-linecap:round;stroke-linejoin:round;stroke:rgb(0%,0%,0%);stroke-opacity:1;stroke-miterlimit:3;" d="M -0.0000840325 396.648903 L 56.039629 396.648923 " transform="matrix(0.730787,-0.681228,0.682604,0.729314,-28.148499,-176.187887)"/>
<path id="L7toL6" style="fill:none;stroke-width:0.75;stroke-linecap:round;stroke-linejoin:round;stroke:rgb(0%,0%,0%);stroke-opacity:1;stroke-miterlimit:3;" d="M 15.388385 396.649934 L  0.000209442 396.649399 " transform="matrix(0.682317,0.729581,-0.731055,0.680941,573.531494,-195.173513)"/>
<path id="L5toL8" style="fill:none;stroke-width:0.75;stroke-linecap:round;stroke-linejoin:round;stroke:rgb(0%,0%,0%);stroke-opacity:1;stroke-miterlimit:3;" d="M -0.00141111 396.649021 L 58.118994 396.649189 " transform="matrix(0.677475,0.734061,-0.735544,0.676109,551.687516,-197.747311)"/>
<path id="L5toL23" style="fill:none;stroke-width:0.75;stroke-linecap:round;stroke-linejoin:round;stroke:rgb(0%,0%,0%);stroke-opacity:1;stroke-miterlimit:3;" d="M 0.000897433 396.650523 L 58.508617 396.65059 " transform="matrix(-0.0192271,0.997798,-0.999814,-0.0191883,656.51041,78.043757)"/>
<path id="L24toL6" style="fill:none;stroke-width:0.75;stroke-linecap:round;stroke-linejoin:round;stroke:rgb(0%,0%,0%);stroke-opacity:1;stroke-miterlimit:3;" d="M 54.001772 396.651193 L -0.00169197 396.651193 " transform="matrix(0.000000000000000061,0.997983,-0.999999,0.000000000000000061,680.209386,74.923564)"/>
<path id="L23toL18" style="fill:none;stroke-width:0.75;stroke-linecap:round;stroke-linejoin:round;stroke:rgb(0%,0%,0%);stroke-opacity:1;stroke-miterlimit:3;" d="M -0.000367267 396.65192 L 15.288373 396.649768 " transform="matrix(-0.735931,0.67569,-0.677055,-0.734447,527.36354,465.941234)"/>
<path id="L20toL24" style="fill:none;stroke-width:0.75;stroke-linecap:round;stroke-linejoin:round;stroke:rgb(0%,0%,0%);stroke-opacity:1;stroke-miterlimit:3;" d="M 0.0000524177 396.650161 L 15.55868 396.649079 " transform="matrix(0.746877,0.663621,-0.664961,0.745371,547.31552,-121.030372)"/>
<path id="L19toL17" style="fill:none;stroke-width:0.75;stroke-linecap:round;stroke-linejoin:round;stroke:rgb(0%,0%,0%);stroke-opacity:1;stroke-miterlimit:3;" d="M -0.000297694 396.647571 L 59.698492 396.650063 " transform="matrix(0.829139,-0.557913,0.55904,0.827468,154.062917,-120.810816)"/>
<path id="L8toL20" style="fill:none;stroke-width:0.75;stroke-linecap:round;stroke-linejoin:round;stroke:rgb(0%,0%,0%);stroke-opacity:1;stroke-miterlimit:3;" d="M 0.00168588 396.650552 L 21.229838 396.647882 " transform="matrix(0.847997,-0.52893,0.529999,0.846288,165.582905,-150.730342)"/>
<path id="L12V" style="fill:none;stroke-width:0.75;stroke-linecap:round;stroke-linejoin:round;stroke:rgb(0%,0%,0%);stroke-opacity:1;stroke-miterlimit:3;" d="M -0.000284127 396.651083 L 60.751166 396.651083 " transform="matrix(0.000000000000000061,0.997983,-0.999999,0.000000000000000061,789.334276,218.633096)"/>
<path id="L11V" style="fill:none;stroke-width:0.75;stroke-linecap:round;stroke-linejoin:round;stroke:rgb(0%,0%,0%);stroke-opacity:1;stroke-miterlimit:3;" d="M 94.870771  396.651047 L -0.000284127 396.651047 " transform="matrix(0.000000000000000061,0.997983,-0.999999,0.000000000000000061,824.209241,218.633096)"/>
<path id="L11H" style="fill:none;stroke-width:0.75;stroke-linecap:round;stroke-linejoin:round;stroke:rgb(0%,0%,0%);stroke-opacity:1;stroke-miterlimit:3;" d="M 0.000823277 396.651585 L 128.250953 396.651585 " transform="matrix(0.999999,0,0,0.997983,299.30777,-82.535079)"/>
<path id="L15H" style="fill:none;stroke-width:0.75;stroke-linecap:round;stroke-linejoin:round;stroke:rgb(0%,0%,0%);stroke-opacity:1;stroke-miterlimit:3;" d="M 0.000645917 396.650827 L 124.129677 396.650827 " transform="matrix(0.999999,0,0,0.997983,123.432948,-82.909323)"/>
<path id="L14" style="fill:none;stroke-width:0.75;stroke-linecap:round;stroke-linejoin:round;stroke:rgb(0%,0%,0%);stroke-opacity:1;stroke-miterlimit:3;" d="M -0.000551734 396.651218 L 48.94975 396.651218 " transform="matrix(0.000000000000000061,0.997983,-0.999999,0.000000000000000061,655.459411,328.660707)"/>
<path id="L13" style="fill:none;stroke-width:0.75;stroke-linecap:round;stroke-linejoin:round;stroke:rgb(0%,0%,0%);stroke-opacity:1;stroke-miterlimit:3;" d="M 48.94975 396.65119 L -0.000551734 396.65119 " transform="matrix(0.000000000000000061,0.997983,-0.999999,0.000000000000000061,682.459384,328.660707)"/>
<path id="L15V" style="fill:none;stroke-width:0.75;stroke-linecap:round;stroke-linejoin:round;stroke:rgb(0%,0%,0%);stroke-opacity:1;stroke-miterlimit:3;" d="M -0.000408499 396.651354 L 92.620013 396.651354 " transform="matrix(0.000000000000000061,0.997983,-0.999999,0.000000000000000061,520.084548,220.504314)"/>
<path id="L22" style="fill:none;stroke-width:0.75;stroke-linecap:round;stroke-linejoin:round;stroke:rgb(0%,0%,0%);stroke-opacity:1;stroke-miterlimit:3;" d="M 48.949365 396.65119 L  -0.000937359 396.65119 " transform="matrix(0.000000000000000061,0.997983,-0.999999,0.000000000000000061,682.459384,216.934529)"/>
<path id="L16H" style="fill:none;stroke-width:0.75;stroke-linecap:round;stroke-linejoin:round;stroke:rgb(0%,0%,0%);stroke-opacity:1;stroke-miterlimit:3;" d="M 0.000668607 396.649252 L 102.000771 396.649252 " transform="matrix(0.999999,0,0,0.997983,145.932925,-116.591344)"/>
<path id="L12H" style="fill:none;stroke-width:0.75;stroke-linecap:round;stroke-linejoin:round;stroke:rgb(0%,0%,0%);stroke-opacity:1;stroke-miterlimit:3;" d="M 94.118105 396.649252 L  0.000822521 396.649252 " transform="matrix(0.999999,0,0,0.997983,298.557771,-116.591344)"/>
<path id="L16H" style="fill:none;stroke-width:0.75;stroke-linecap:round;stroke-linejoin:round;stroke:rgb(0%,0%,0%);stroke-opacity:1;stroke-miterlimit:3;" d="M -0.00116645 396.651331 L 59.251166 396.651331 " transform="matrix(0.000000000000000061,0.997983,-0.999999,0.000000000000000061,542.959525,220.13007)"/>
<path id="L21" style="fill:none;stroke-width:0.75;stroke-linecap:round;stroke-linejoin:round;stroke:rgb(0%,0%,0%);stroke-opacity:1;stroke-miterlimit:3;" d="M 0.000937359 396.651215 L 48.949365 396.651215 " transform="matrix(0.000000000000000061,0.997983,-0.999999,0.000000000000000061,657.709409,216.934529)"/>
<path id="L21toL16" style="fill:none;stroke-width:0.75;stroke-linecap:round;stroke-linejoin:round;stroke:rgb(0%,0%,0%);stroke-opacity:1;stroke-miterlimit:3;" d="M -0.000775814 396.650532 L 18.830544 396.647914 " transform="matrix(-0.697077,0.715549,-0.716995,-0.695671,545.454522,541.728052)"/>
<path id="L15toL22" style="fill:none;stroke-width:0.75;stroke-linecap:round;stroke-linejoin:round;stroke:rgb(0%,0%,0%);stroke-opacity:1;stroke-miterlimit:3;" d="M -0.000140562 396.650163 L 60.789709 396.651666 " transform="matrix(-0.629198,0.775677,-0.777244,-0.627929,594.102473,514.857364)"/>
<path id="L21toL14" style="fill:none;stroke-width:0.75;stroke-linecap:round;stroke-linejoin:round;stroke:rgb(0%,0%,0%);stroke-opacity:1;stroke-miterlimit:3;" d="M 0.00129816 396.650891 L 63.039635 396.650968 " transform="matrix(-0.0356913,0.997347,-0.999362,-0.0356194,657.456409,279.91623)"/>
<path id="L13toL22" style="fill:none;stroke-width:0.75;stroke-linecap:round;stroke-linejoin:round;stroke:rgb(0%,0%,0%);stroke-opacity:1;stroke-miterlimit:3;" d="M 62.999448 396.65119 L 0.00127868 396.65119 " transform="matrix(0.000000000000000061,0.997983,-0.999999,0.000000000000000061,682.459384,265.787786)"/>
<path id="L12toL22" style="fill:none;stroke-width:0.75;stroke-linecap:round;stroke-linejoin:round;stroke:rgb(0%,0%,0%);stroke-opacity:1;stroke-miterlimit:3;" d="M 0.000820909 396.651663 L 18.569875 396.651439 " transform="matrix(-0.686617,-0.725552,0.727017,-0.685233,10.186462,551.061188)"/>
<path id="L21toL11" style="fill:none;stroke-width:0.75;stroke-linecap:round;stroke-linejoin:round;stroke:rgb(0%,0%,0%);stroke-opacity:1;stroke-miterlimit:3;" d="M -0.000239805 396.649986 L 61.082117 396.649304 " transform="matrix(-0.626195,-0.778093,0.779665,-0.624933,-9.949638,561.195704)"/>
<path id="L15toL11" style="fill:none;stroke-width:0.75;stroke-linecap:round;stroke-linejoin:round;stroke:rgb(0%,0%,0%);stroke-opacity:1;stroke-miterlimit:3;" d="M 51.748541 396.648798 L 0.00103129 396.649746 " transform="matrix(-0.999973,-0.00722844,0.00724305,-0.997957,296.432773,709.15864)"/>
<path id="L12toL16" style="fill:none;stroke-width:0.75;stroke-linecap:round;stroke-linejoin:round;stroke:rgb(0%,0%,0%);stroke-opacity:1;stroke-miterlimit:3;" d="M 0.000859207 396.649252 L 50.629817 396.649241 " transform="matrix(0.999999,0.000000220753,-0.000000221199,0.997983,247.932822,-116.591344)"/>
<path id="L22toL18" style="fill:none;stroke-width:0.75;stroke-linecap:round;stroke-linejoin:round;stroke:rgb(0%,0%,0%);stroke-opacity:1;stroke-miterlimit:3;" d="M 49.901487 396.649853 L -0.00046926 396.650584 " transform="matrix(0.766512,0.640933,-0.642228,0.764967,502.298566,-118.474538)"/>
<path id="L22toL19" style="fill:none;stroke-width:0.75;stroke-linecap:round;stroke-linejoin:round;stroke:rgb(0%,0%,0%);stroke-opacity:1;stroke-miterlimit:3;" d="M -0.00031906 396.650257 L 13.37983 396.651291 " transform="matrix(-0.70061,0.712105,-0.713543,-0.699197,578.210489,484.743231)"/>
<path id="L17toL21" style="fill:none;stroke-width:0.75;stroke-linecap:round;stroke-linejoin:round;stroke:rgb(0%,0%,0%);stroke-opacity:1;stroke-miterlimit:3;" d="M 16.539831 396.651264 L -0.0000653465 396.651115 " transform="matrix(-0.816439,-0.576265,0.57743,-0.814793,32.01644,540.122298)"/>
<path id="L23toL21" style="fill:none;stroke-width:0.75;stroke-linecap:round;stroke-linejoin:round;stroke:rgb(0%,0%,0%);stroke-opacity:1;stroke-miterlimit:3;" d="M -0.000674792 396.650523 L 42.460917 396.650689 " transform="matrix(0.052993,0.996581,-0.998594,0.0528861,654.901412,153.644452)"/>
<path id="L22toL24" style="fill:none;stroke-width:0.75;stroke-linecap:round;stroke-linejoin:round;stroke:rgb(0%,0%,0%);stroke-opacity:1;stroke-miterlimit:3;" d="M 42.460918 396.650498 L -0.000673469 396.650664 " transform="matrix(0.052993,0.996581,-0.998594,0.0528861,679.651387,153.644452)"/>
<path id="L20toL21" style="fill:none;stroke-width:0.75;stroke-linecap:round;stroke-linejoin:round;stroke:rgb(0%,0%,0%);stroke-opacity:1;stroke-miterlimit:3;" d="M -0.00143361 396.64928 L 46.811032 396.651474 " transform="matrix(0.72894,-0.683195,0.684576,0.727471,-10.480717,-71.618145)"/>
<path id="L11toL20" style="fill:none;stroke-width:0.75;stroke-linecap:round;stroke-linejoin:round;stroke:rgb(0%,0%,0%);stroke-opacity:1;stroke-miterlimit:3;" d="M 0.000304056 396.649822 L 61.778739 396.649989 " transform="matrix(0.837609,0.545167,-0.546268,0.83592,592.485475,-146.618653)"/>
<path id="L9toL12" style="fill:none;stroke-width:0.75;stroke-linecap:round;stroke-linejoin:round;stroke:rgb(0%,0%,0%);stroke-opacity:1;stroke-miterlimit:3;" d="M 59.698924 396.650207 L -0.00205458 396.649454 " transform="matrix(0.829139,-0.557913,0.55904,0.827468,170.9379,-109.583508)"/>
<path id="L19toL12" style="fill:none;stroke-width:0.75;stroke-linecap:round;stroke-linejoin:round;stroke:rgb(0%,0%,0%);stroke-opacity:1;stroke-miterlimit:3;" d="M -0.00066312 396.648937 L 21.030711 396.65098 " transform="matrix(0.855914,0.516073,-0.517116,0.854189,580.922486,-131.410392)"/>
<path id="L11toL10" style="fill:none;stroke-width:0.75;stroke-linecap:round;stroke-linejoin:round;stroke:rgb(0%,0%,0%);stroke-opacity:1;stroke-miterlimit:3;" d="M -0.00181084 396.650456 L 19.358454 396.650166 " transform="matrix(0.813732,-0.580066,0.581238,0.812092,197.007874,-103.484835)"/>
<path id="L13toL16" style="fill:none;stroke-width:0.75;stroke-linecap:round;stroke-linejoin:round;stroke:rgb(0%,0%,0%);stroke-opacity:1;stroke-miterlimit:3;" d="M 0.0000167491 396.650859 L 62.329672 396.651658 " transform="matrix(-0.607666,-0.79259,0.794191,-0.606441,-29.207998,569.209507)"/>
<path id="L12toL14" style="fill:none;stroke-width:0.75;stroke-linecap:round;stroke-linejoin:round;stroke:rgb(0%,0%,0%);stroke-opacity:1;stroke-miterlimit:3;" d="M -0.00240611 396.649924 L 63.481022 396.650498 " transform="matrix(-0.626141,0.778137,-0.779709,-0.624878,607.832459,527.117583)"/>
<path id="L15toL14" style="fill:none;stroke-width:0.75;stroke-linecap:round;stroke-linejoin:round;stroke:rgb(0%,0%,0%);stroke-opacity:1;stroke-miterlimit:3;" d="M -0.000372816 396.649846 L 19.360745 396.649345 " transform="matrix(-0.581242,-0.812089,0.813729,-0.58007,-63.961163,558.744658)"/>
<path id="L13toL11" style="fill:none;stroke-width:0.75;stroke-linecap:round;stroke-linejoin:round;stroke:rgb(0%,0%,0%);stroke-opacity:1;stroke-miterlimit:3;" d="M 20.45935 396.651087 L 0.0013867 396.648215 " transform="matrix(-0.659804,0.749921,-0.751436,-0.658474,597.36747,574.499814)"/>
<path id="L23toL3" style="fill:none;stroke-width:0.75;stroke-linecap:round;stroke-linejoin:round;stroke:rgb(0%,0%,0%);stroke-opacity:1;stroke-miterlimit:3;" d="M -0.0010387 396.649385 L 58.119367 396.649553 " transform="matrix(0.677475,0.734061,-0.735544,0.676109,535.937532,-182.029081)"/>
<path id="L7toL23" style="fill:none;stroke-width:0.75;stroke-linecap:round;stroke-linejoin:round;stroke:rgb(0%,0%,0%);stroke-opacity:1;stroke-miterlimit:3;" d="M -0.000227856 396.648626 L 55.411217 396.651455 " transform="matrix(0.636181,-0.769983,0.771538,0.634899,-47.22478,-123.019352)"/>
<path id="L18toL15" style="fill:none;stroke-width:0.75;stroke-linecap:round;stroke-linejoin:round;stroke:rgb(0%,0%,0%);stroke-opacity:1;stroke-miterlimit:3;" d="M 50.911012 396.649631 L -0.0018106 396.651353 " transform="matrix(0.714433,-0.698292,0.699703,0.712992,-154.105772,-62.305567)"/>
<path id="L16toL17" style="fill:none;stroke-width:0.75;stroke-linecap:round;stroke-linejoin:round;stroke:rgb(0%,0%,0%);stroke-opacity:1;stroke-miterlimit:3;" d="M -0.00108672 396.64919 L 18.57246 396.650213 " transform="matrix(0.727013,-0.685238,0.686623,0.725547,-126.042801,-67.659446)"/>
<path id="L3toL17" style="fill:none;stroke-width:0.75;stroke-linecap:round;stroke-linejoin:round;stroke:rgb(0%,0%,0%);stroke-opacity:1;stroke-miterlimit:3;" d="M 0.000738132 396.651162 L 50.120571 396.648368 " transform="matrix(0.71824,0.694391,-0.695794,0.716792,399.795669,-111.7152)"/>
<path id="L16toL1" style="fill:none;stroke-width:0.75;stroke-linecap:round;stroke-linejoin:round;stroke:rgb(0%,0%,0%);stroke-opacity:1;stroke-miterlimit:3;" d="M -0.000799623 396.650234 L 48.801692 396.650727 " transform="matrix(0.69157,0.720851,-0.722308,0.690176,399.06267,-88.808699)"/>
<path id="L18toL4" style="fill:none;stroke-width:0.75;stroke-linecap:round;stroke-linejoin:round;stroke:rgb(0%,0%,0%);stroke-opacity:1;stroke-miterlimit:3;" d="M -0.0000627124 396.64998 L 17.569531 396.65189 " transform="matrix(0.76822,0.638893,-0.640184,0.766671,400.237669,-130.377479)"/>
<path id="L2toL15" style="fill:none;stroke-width:0.75;stroke-linecap:round;stroke-linejoin:round;stroke:rgb(0%,0%,0%);stroke-opacity:1;stroke-miterlimit:3;" d="M 17.042106 396.650535 L -0.00220834 396.649919 " transform="matrix(-0.638015,-0.76847,0.770023,-0.636729,-181.997744,473.064835)"/>
<path id="L8toL12" style="fill:none;stroke-width:0.75;stroke-linecap:round;stroke-linejoin:round;stroke:rgb(0%,0%,0%);stroke-opacity:1;stroke-miterlimit:3;" d="M -0.00100957 396.651003 L 45.010067 396.651075 " transform="matrix(-0.0249922,0.997671,-0.999687,-0.0249418,790.335275,183.616871)"/>
<path id="L11toL7" style="fill:none;stroke-width:0.75;stroke-linecap:round;stroke-linejoin:round;stroke:rgb(0%,0%,0%);stroke-opacity:1;stroke-miterlimit:3;" d="M -0.000127513 396.650258 L 44.68173 396.65025 " transform="matrix(0.0503558,0.996717,-0.99873,0.0502543,821.455244,154.164401)"/>
<path id="L16toL4" style="fill:none;stroke-width:0.75;stroke-linecap:round;stroke-linejoin:round;stroke:rgb(0%,0%,0%);stroke-opacity:1;stroke-miterlimit:3;" d="M 0.00116645 396.648763 L 46.501213 396.648763 " transform="matrix(0.000000000000000061,-0.997983,0.999999,0.000000000000000061,-250.343675,220.13007)"/>
<path id="L3toL15" style="fill:none;stroke-width:0.75;stroke-linecap:round;stroke-linejoin:round;stroke:rgb(0%,0%,0%);stroke-opacity:1;stroke-miterlimit:3;" d="M 0.0000349207 396.648843 L 48.000664 396.648862 " transform="matrix(0.00781201,-0.997952,0.999968,0.00779626,-273.206652,217.411565)"/>
</g>
</svg>
