<?xml version="1.0" standalone="no"?>
<!DOCTYPE svg PUBLIC "-//W3C//DTD SVG 20010904//EN"
 "http://www.w3.org/TR/2001/REC-SVG-20010904/DTD/svg10.dtd">
<svg version="1.0" xmlns="http://www.w3.org/2000/svg"
 width="671.000000pt" height="481.000000pt" viewBox="0 0 671.000000 481.000000"
 preserveAspectRatio="xMidYMid meet">

<g transform="translate(0.000000,481.000000) scale(0.100000,-0.100000)"
fill="#000000" stroke="none">
<path id="entP_toA1" d="M2910 4405 l0 -405 -760 0 -760 0 0 -55 0 -55 -80 0 -80 0 0 -605 0
-605 -615 0 -615 0 0 -90 0 -90 680 0 c447 0 680 3 680 10 0 6 35 10 85 10
l85 0 0 615 0 615 740 0 c651 0 740 2 740 15 0 13 23 15 150 15 l150 0 0 515
0 515 -200 0 -200 0 0 -405z"/>
</g>
</svg>
