<?xml version="1.0" standalone="no"?>
<!DOCTYPE svg PUBLIC "-//W3C//DTD SVG 20010904//EN"
 "http://www.w3.org/TR/2001/REC-SVG-20010904/DTD/svg10.dtd">
<svg version="1.0" xmlns="http://www.w3.org/2000/svg"
 width="671.000000pt" height="481.000000pt" viewBox="0 0 671.000000 481.000000"
 preserveAspectRatio="xMidYMid meet">

<g transform="translate(0.000000,481.000000) scale(0.100000,-0.100000)"
fill="#000000" stroke="none">
<path d="M3188 4453 c-4 -342 -5 -361 -26 -419 -13 -34 -34 -72 -48 -85 -24
-22 -26 -23 -110 -11 -151 22 -388 31 -936 34 l-536 3 -44 -31 c-28 -21 -53
-52 -73 -90 l-30 -59 -3 -532 -3 -532 -41 -36 c-23 -19 -66 -44 -96 -55 -54
-21 -57 -21 -506 -6 -248 9 -515 18 -593 21 l-143 6 0 -49 0 -50 123 -6 c67
-3 203 -8 302 -11 99 -3 312 -10 473 -16 284 -10 295 -10 360 10 68 21 191
103 208 138 5 10 11 261 14 558 5 583 4 569 59 619 21 19 39 20 534 18 547 -3
816 -14 928 -37 106 -23 168 1 216 82 65 112 67 123 71 526 l3 367 -50 0 -50
0 -3 -357z"/>
</g>
</svg>
