<?xml version="1.0" standalone="no"?>
<!DOCTYPE svg PUBLIC "-//W3C//DTD SVG 20010904//EN"
 "http://www.w3.org/TR/2001/REC-SVG-20010904/DTD/svg10.dtd">
<svg version="1.0" xmlns="http://www.w3.org/2000/svg"
 width="671.000000pt" height="481.000000pt" viewBox="0 0 671.000000 481.000000"
 preserveAspectRatio="xMidYMid meet">

<g transform="translate(0.000000,481.000000) scale(0.100000,-0.100000)"
fill="#000000" stroke="none">
<path id="entP_toA1" d="M3231 4190 c-2 -81 -34 -157 -82 -191 l-34 -24 -290 3 c-159 2 -508
-2 -775 -8 -540 -13 -520 -10 -589 -85 -68 -74 -74 -114 -62 -387 6 -127 11
-345 11 -485 l0 -253 -66 -65 c-37 -36 -90 -76 -119 -90 l-52 -26 -344 7
c-189 4 -341 4 -337 0 5 -7 536 -37 649 -38 64 0 154 49 239 132 l67 65 8 278
c4 152 4 372 0 487 -9 249 -3 282 61 346 40 41 43 42 125 48 171 13 814 37
1134 43 360 6 359 6 413 67 43 49 62 119 52 187 l-8 54 -1 -65z"/>
</g>
</svg>
