<?xml version="1.0" encoding="UTF-8"?>
<svg xmlns="http://www.w3.org/2000/svg" xmlns:xlink="http://www.w3.org/1999/xlink" width="739pt" height="535pt" viewBox="0 0 739 535" version="1.1">
<g id="surface1">
<path id="entP_toA1" style="fill:none;stroke-width:1;stroke-linecap:round;stroke-linejoin:round;stroke:rgb(0%,0%,0%);stroke-opacity:1;stroke-miterlimit:3;" d="M 0.0015065 426.878571 C -41.261324 423.400709 -42.740569 425.899155 -43.321033 433.350824 C -43.988878 442.068872 -43.411535 457.589803 -42.809226 485.659109 " transform="matrix(1.251694,0,0,1.252341,719.646552,-289.238186)"/>
<path id="entP_toFirstBarrier" style="fill:none;stroke-width:1;stroke-linecap:round;stroke-linejoin:round;stroke:rgb(0%,0%,0%);stroke-opacity:1;stroke-miterlimit:3;" d="M 7.199774 426.880751 L 7.199774 515.471085 " transform="matrix(1.251694,0,0,1.252341,657.050587,-110.940135)"/>
<path id="entP_toSecondBarrier" style="fill:none;stroke-width:1;stroke-linecap:round;stroke-linejoin:round;stroke:rgb(0%,0%,0%);stroke-opacity:1;stroke-miterlimit:3;" d="M 7.199774 426.880731 L 7.199774 511.740551 " transform="matrix(1.251694,0,0,1.252341,657.050587,-217.213547)"/>
<path id="entP_toA4" style="fill:none;stroke-width:1;stroke-linecap:round;stroke-linejoin:round;stroke:rgb(0%,0%,0%);stroke-opacity:1;stroke-miterlimit:3;" d="M -0.000226346 426.880347 C -2.04121 292.120232 -3.770117 279.378471 6.668861 271.558741 C 9.979998 269.07901 14.511358 267.088987 42.810506 268.180692 " transform="matrix(1.251694,0,0,1.252341,666.062783,-215.619317)"/>
<path id="entP_toA3" style="fill:none;stroke-width:1;stroke-linecap:round;stroke-linejoin:round;stroke:rgb(0%,0%,0%);stroke-opacity:1;stroke-miterlimit:3;" d="M 0.0015065 426.881093 C -32.750982 426.088826 -37.741095 429.451279 -40.630928 433.150601 C -47.980343 442.589174 -41.77001 454.320328 -42.809226 552.820228 " transform="matrix(1.251694,0,0,1.252341,719.646552,-373.342907)"/>
<path id="entP_toA2" style="fill:none;stroke-width:1;stroke-linecap:round;stroke-linejoin:round;stroke:rgb(0%,0%,0%);stroke-opacity:1;stroke-miterlimit:3;" d="M -0.000554824 426.880411 C -2.200698 343.049912 1.519261 339.818464 6.921315 336.480965 C 9.530279 334.859003 12.538702 333.221444 42.841386 335.270731 " transform="matrix(1.251694,0,0,1.252341,666.020226,-217.58424)"/>
<path id="entP_toA5" style="fill:none;stroke-width:1;stroke-linecap:round;stroke-linejoin:round;stroke:rgb(0%,0%,0%);stroke-opacity:1;stroke-miterlimit:3;" d="M -0.000226346 426.880347 C -2.871335 255.688463 -3.679615 242.99037 6.010378 232.80008 C 8.541323 230.139438 11.799408 227.640992 42.810506 230.50126 " transform="matrix(1.251694,0,0,1.252341,666.062783,-215.619317)"/>
<path id="entP_toD1" style="fill:none;stroke-width:1;stroke-linecap:round;stroke-linejoin:round;stroke:rgb(0%,0%,0%);stroke-opacity:1;stroke-miterlimit:3;" d="M -0.000226346 426.880347 C -7.970675 192.831185 -43.30092 270.629232 -58.458504 234.069577 C -62.300172 224.83063 -64.84048 208.289734 -65.299233 187.101292 " transform="matrix(1.251694,0,0,1.252341,666.062783,-215.619317)"/>
<path id="entP_toD2" style="fill:none;stroke-width:1;stroke-linecap:round;stroke-linejoin:round;stroke:rgb(0%,0%,0%);stroke-opacity:1;stroke-miterlimit:3;" d="M -0.000226346 426.880347 C -7.970675 212.49124 -38.819493 248.91989 -71.681209 240.560546 C -85.509344 237.039016 -99.699489 225.588586 -99.699489 189.549831 " transform="matrix(1.251694,0,0,1.252341,666.062783,-215.619317)"/>
<path id="entP_toD3" style="fill:none;stroke-width:1;stroke-linecap:round;stroke-linejoin:round;stroke:rgb(0%,0%,0%);stroke-opacity:1;stroke-miterlimit:3;" d="M -0.000226346 426.880347 C -1.420177 199.381418 -46.399846 246.408967 -90.589959 246.39961 C -114.919488 246.39961 -139.008717 232.138818 -132.46134 186.280953 " transform="matrix(1.251694,0,0,1.252341,666.062783,-215.619317)"/>
<path id="entP_toD4" style="fill:none;stroke-width:1;stroke-linecap:round;stroke-linejoin:round;stroke:rgb(0%,0%,0%);stroke-opacity:1;stroke-miterlimit:3;" d="M -0.000226346 426.880347 C 8.410251 192.831185 -70.379848 244.409587 -120.499426 244.25051 C -152.971045 244.141339 -173.408973 222.31035 -165.22007 186.280953 " transform="matrix(1.251694,0,0,1.252341,666.062783,-215.619317)"/>
<path id="entP_toD5" style="fill:none;stroke-width:1;stroke-linecap:round;stroke-linejoin:round;stroke:rgb(0%,0%,0%);stroke-opacity:1;stroke-miterlimit:3;" d="M -0.000226346 426.880347 C -1.420177 182.999598 -79.208508 243.108898 -138.500031 246.87996 C -179.129345 249.459504 -211.079796 225.588586 -201.249368 186.280953 " transform="matrix(1.251694,0,0,1.252341,666.062783,-215.619317)"/>
<path id="entP_toD6" style="fill:none;stroke-width:1;stroke-linecap:round;stroke-linejoin:round;stroke:rgb(0%,0%,0%);stroke-opacity:1;stroke-miterlimit:3;" d="M -0.000226346 426.880347 C -14.521173 179.730721 -79.611088 239.518747 -147.060305 247.279213 C -194.861151 252.781408 -243.838526 232.138818 -235.649624 182.999598 " transform="matrix(1.251694,0,0,1.252341,666.062783,-215.619317)"/>
<path id="entP_toD7" style="fill:none;stroke-width:1;stroke-linecap:round;stroke-linejoin:round;stroke:rgb(0%,0%,0%);stroke-opacity:1;stroke-miterlimit:3;" d="M -0.000856509 426.880024 C -40.471011 428.321075 -43.429502 428.679779 -53.21936 425.289253 C -61.851412 422.3011 -75.810619 416.380937 -72.530689 368.879276 " transform="matrix(1.251694,0,0,1.252341,414.727635,-446.349381)"/>
<path id="entP_toD8" style="fill:none;stroke-width:1;stroke-linecap:round;stroke-linejoin:round;stroke:rgb(0%,0%,0%);stroke-opacity:1;stroke-miterlimit:3;" d="M -0.000226346 426.880347 C 24.791176 205.928531 -62.790133 236.140698 -153.529663 248.199364 C -236.670116 259.250542 -322.460103 255.07087 -309.359108 186.280953 " transform="matrix(1.251694,0,0,1.252341,666.062783,-215.619317)"/>
<path id="entP_toD9" style="fill:none;stroke-width:1;stroke-linecap:round;stroke-linejoin:round;stroke:rgb(0%,0%,0%);stroke-opacity:1;stroke-miterlimit:3;" d="M -0.000226346 426.880347 C 37.901534 212.49124 -81.698883 230.120723 -182.609005 239.999097 C -279.090753 249.440789 -358.498764 251.798873 -342.120959 179.730721 " transform="matrix(1.251694,0,0,1.252341,666.062783,-215.619317)"/>
<path id="entP_t0D10" style="fill:none;stroke-width:1;stroke-linecap:round;stroke-linejoin:round;stroke:rgb(0%,0%,0%);stroke-opacity:1;stroke-miterlimit:3;" d="M -0.000226346 426.880347 C 11.690181 186.280953 -87.19144 219.780713 -194.439847 237.981002 C -291.090116 254.381536 -394.540545 258.349105 -374.879689 179.730721 " transform="matrix(1.251694,0,0,1.252341,666.062783,-215.619317)"/>
<path id="entP_toD11" style="fill:none;stroke-width:1;stroke-linecap:round;stroke-linejoin:round;stroke:rgb(0%,0%,0%);stroke-opacity:1;stroke-miterlimit:3;" d="M -0.000226346 426.880347 C 18.240679 160.070666 -123.31124 232.260465 -238.349091 252.32913 C -343.999663 270.760236 -427.299275 245.248641 -407.64154 179.730721 " transform="matrix(1.251694,0,0,1.252341,666.062783,-215.619317)"/>
<path id="entP_toB1" style="fill:none;stroke-width:1;stroke-linecap:round;stroke-linejoin:round;stroke:rgb(0%,0%,0%);stroke-opacity:1;stroke-miterlimit:3;" d="M 0.000272973 426.879094 C -3.111135 387.259545 10.670188 379.159091 27.469297 374.711171 C 46.4311 369.679969 69.240813 369.290074 70.379894 457.509228 " transform="matrix(1.251694,0,0,1.252341,577.972315,-253.981028)"/>
<path id="entP_toB2" style="fill:none;stroke-width:1;stroke-linecap:round;stroke-linejoin:round;stroke:rgb(0%,0%,0%);stroke-opacity:1;stroke-miterlimit:3;" d="M 0.0000849099 426.879078 C -0.321354 380.980663 9.970947 378.691201 34.490843 373.918889 C 60.780216 368.809708 103.409944 360.840258 104.829894 459.970228 " transform="matrix(1.251694,0,0,1.252341,534.851456,-257.06304)"/>
<path id="entP_toB3" style="fill:none;stroke-width:1;stroke-linecap:round;stroke-linejoin:round;stroke:rgb(0%,0%,0%);stroke-opacity:1;stroke-miterlimit:3;" d="M 0.00142225 426.878739 C -7.919094 377.44008 9.160884 369.598516 43.48 368.129393 C 81.590852 366.501192 140.979119 372.720794 137.639894 460.790228 " transform="matrix(1.251694,0,0,1.252341,493.783376,-258.089959)"/>
<path id="entP_toB4" style="fill:none;stroke-width:1;stroke-linecap:round;stroke-linejoin:round;stroke:rgb(0%,0%,0%);stroke-opacity:1;stroke-miterlimit:3;" d="M -0.000361182 426.881181 C -7.870945 365.970258 19.710427 373.540455 63.629033 370.698902 C 110.359454 367.670199 175.580442 352.869793 170.449894 462.430228 " transform="matrix(1.251694,0,0,1.252341,452.715296,-260.143799)"/>
<path id="entP_toB5" style="fill:none;stroke-width:1;stroke-linecap:round;stroke-linejoin:round;stroke:rgb(0%,0%,0%);stroke-opacity:1;stroke-miterlimit:3;" d="M -0.0000238428 426.881181 C 0.608526 348.390682 28.611202 367.239755 78.680848 368.771262 C 131.331371 370.390105 208.389442 352.869793 203.258894 462.430228 " transform="matrix(1.251694,0,0,1.252341,411.648467,-260.143799)"/>
<path id="entP_toB6" style="fill:none;stroke-width:1;stroke-linecap:round;stroke-linejoin:round;stroke:rgb(0%,0%,0%);stroke-opacity:1;stroke-miterlimit:3;" d="M -0.000211906 426.878739 C 0.421092 361.06138 8.260468 367.661519 66.100833 364.710795 C 125.560878 361.678973 237.839967 348.559793 237.708894 460.790228 " transform="matrix(1.251694,0,0,1.252341,368.527609,-258.089959)"/>
<path id="entP_toB7" style="fill:none;stroke-width:1;stroke-linecap:round;stroke-linejoin:round;stroke:rgb(0%,0%,0%);stroke-opacity:1;stroke-miterlimit:3;" d="M -0.000925372 426.879078 C -2.800257 337.309328 28.650871 366.679323 98.69969 366.629416 C 170.221514 366.570152 281.979435 335.82149 273.799894 459.970228 " transform="matrix(1.251694,0,0,1.252341,323.352721,-257.06304)"/>
<path id="entP_toB8" style="fill:none;stroke-width:1;stroke-linecap:round;stroke-linejoin:round;stroke:rgb(0%,0%,0%);stroke-opacity:1;stroke-miterlimit:3;" d="M -0.00111344 426.878739 C 0.788442 343.980869 50.18088 362.698938 125.08874 362.249779 C 202.390231 361.778786 306.870514 340.899141 308.249894 460.790228 " transform="matrix(1.251694,0,0,1.252341,280.231862,-258.089959)"/>
<path id="entP_toB9" style="fill:none;stroke-width:1;stroke-linecap:round;stroke-linejoin:round;stroke:rgb(0%,0%,0%);stroke-opacity:1;stroke-miterlimit:3;" d="M -0.0013015 426.878739 C -12.531196 344.67956 51.029541 371.678995 138.320619 370.939754 C 229.540748 370.159965 346.69136 339.090029 342.699894 460.790228 " transform="matrix(1.251694,0,0,1.252341,237.111004,-258.089959)"/>
<path id="entP_toB10" style="fill:none;stroke-width:1;stroke-linecap:round;stroke-linejoin:round;stroke:rgb(0%,0%,0%);stroke-opacity:1;stroke-miterlimit:3;" d="M -0.000489563 426.881181 C -10.838926 343.041325 78.209146 376.528609 172.681117 374.370151 C 271.45039 372.108761 376.149127 330.861012 377.150894 462.430228 " transform="matrix(1.251694,0,0,1.252341,193.988894,-260.143799)"/>
<path id="entP_toB11" style="fill:none;stroke-width:1;stroke-linecap:round;stroke-linejoin:round;stroke:rgb(0%,0%,0%);stroke-opacity:1;stroke-miterlimit:3;" d="M -0.000152223 426.881181 C -4.24128 339.769328 60.230723 375.04077 166.939236 371.700152 C 273.301344 368.359533 421.640939 326.659506 409.959894 462.430228 " transform="matrix(1.251694,0,0,1.252341,152.922066,-260.143799)"/>
<path id="entP_toE1" style="fill:none;stroke-width:1;stroke-linecap:round;stroke-linejoin:round;stroke:rgb(0%,0%,0%);stroke-opacity:1;stroke-miterlimit:3;" d="M 0.0000316131 426.879013 C 52.419618 436.7106 48.58107 404.888947 190.978717 390.241379 C 313.378466 377.649337 543.819297 377.739793 519.018532 487.300228 " transform="matrix(1.251694,0,0,1.252341,16.402304,-291.289521)"/>
<path id="entP_toE2" style="fill:none;stroke-width:1;stroke-linecap:round;stroke-linejoin:round;stroke:rgb(0%,0%,0%);stroke-opacity:1;stroke-miterlimit:3;" d="M 0.0000316131 426.879377 C 68.800543 426.879377 176.850988 439.259316 297.091163 432.75899 C 403.559377 427.010382 519.580271 406.44889 519.018532 523.339347 " transform="matrix(1.251694,0,0,1.252341,16.402304,-336.418883)"/>
<path id="entP_toE3" style="fill:none;stroke-width:1;stroke-linecap:round;stroke-linejoin:round;stroke:rgb(0%,0%,0%);stroke-opacity:1;stroke-miterlimit:3;" d="M -0.00024279 426.881093 C 76.58035 417.049506 64.721421 471.251119 194.589174 467.539321 C 307.788891 464.289158 528.661439 417.049506 516.980394 552.820228 " transform="matrix(1.251694,0,0,1.252341,18.965148,-373.342907)"/>
<path id="entP_toE4" style="fill:none;stroke-width:1;stroke-linecap:round;stroke-linejoin:round;stroke:rgb(0%,0%,0%);stroke-opacity:1;stroke-miterlimit:3;" d="M 0.000161843 426.879676 C 61.828872 399.849051 30.839618 500.828681 149.740983 505.360818 C 263.34952 509.69021 513.841304 425.968882 515.339274 588.040347 " transform="matrix(1.251694,0,0,1.252341,21.015422,-417.446602)"/>
<path id="entP_toE5" style="fill:none;stroke-width:1;stroke-linecap:round;stroke-linejoin:round;stroke:rgb(0%,0%,0%);stroke-opacity:1;stroke-miterlimit:3;" d="M -0.00147063 426.879586 C 91.730464 413.779121 4.648478 528.270945 122.111167 540.338969 C 230.049264 551.421338 510.709538 476.009448 512.438445 626.599291 " transform="matrix(1.251694,0,0,1.252341,24.603403,-467.704301)"/>
<path id="entP_toC1" style="fill:none;stroke-width:1;stroke-linecap:round;stroke-linejoin:round;stroke:rgb(0%,0%,0%);stroke-opacity:1;stroke-miterlimit:3;" d="M -0.000637685 426.879715 C -1.108511 475.769402 7.869946 478.121248 20.821145 480.279705 C 38.350514 483.208595 63.151279 485.809973 66.939894 570.841347 " transform="matrix(1.251694,0,0,1.252341,582.278142,-395.907588)"/>
<path id="entP_toC2" style="fill:none;stroke-width:1;stroke-linecap:round;stroke-linejoin:round;stroke:rgb(0%,0%,0%);stroke-opacity:1;stroke-miterlimit:3;" d="M 0.000631986 426.880599 C -2.049714 461.890032 0.921259 477.230052 18.428783 480.040414 C 43.56035 484.061009 98.620108 462.289284 99.699894 572.479789 " transform="matrix(1.251694,0,0,1.252341,541.272646,-400.010258)"/>
<path id="entP_toC3" style="fill:none;stroke-width:1;stroke-linecap:round;stroke-linejoin:round;stroke:rgb(0%,0%,0%);stroke-opacity:1;stroke-miterlimit:3;" d="M 0.00149703 426.878818 C -5.849948 484.770396 11.729353 481.439135 44.740866 480.980619 C 81.519149 480.45972 137.458964 483.510256 134.088532 573.301466 " transform="matrix(1.251694,0,0,1.252341,498.216876,-398.98459)"/>
<path id="entP_toC4" style="fill:none;stroke-width:1;stroke-linecap:round;stroke-linejoin:round;stroke:rgb(0%,0%,0%);stroke-opacity:1;stroke-miterlimit:3;" d="M -0.000758707 426.880157 C -7.368898 479.129178 7.579593 483.140415 49.329264 482.310719 C 95.388719 481.390567 174.069591 474.60016 168.489653 572.479347 " transform="matrix(1.251694,0,0,1.252341,455.161106,-397.958923)"/>
<path id="entP_toC5" style="fill:none;stroke-width:1;stroke-linecap:round;stroke-linejoin:round;stroke:rgb(0%,0%,0%);stroke-opacity:1;stroke-miterlimit:3;" d="M 0.000510964 426.880157 C -3.279419 469.469144 -0.829614 487.700625 47.901221 485.008791 C 100.910632 482.079901 208.711416 454.400491 201.249653 572.479347 " transform="matrix(1.251694,0,0,1.252341,414.15561,-397.958923)"/>
<path id="entP_toC6" style="fill:none;stroke-width:1;stroke-linecap:round;stroke-linejoin:round;stroke:rgb(0%,0%,0%);stroke-opacity:1;stroke-miterlimit:3;" d="M 0.000017934 426.880157 C -2.459149 461.88959 -2.930386 485.850964 54.569815 484.41927 C 116.011549 482.890883 243.660434 452.360561 234.828653 572.479347 " transform="matrix(1.251694,0,0,1.252341,372.124978,-397.958923)"/>
<path id="entP_toC7" style="fill:none;stroke-width:1;stroke-linecap:round;stroke-linejoin:round;stroke:rgb(0%,0%,0%);stroke-opacity:1;stroke-miterlimit:3;" d="M 0.000478341 426.880599 C -12.279754 490.760961 37.399795 493.521416 104.359051 487.4297 C 176.938816 480.820203 269.80047 463.798957 270.870894 574.120466 " transform="matrix(1.251694,0,0,1.252341,327.018933,-400.010258)"/>
<path id="entP_toC8" style="fill:none;stroke-width:1;stroke-linecap:round;stroke-linejoin:round;stroke:rgb(0%,0%,0%);stroke-opacity:1;stroke-miterlimit:3;" d="M -0.000419322 426.880599 C -11.450527 497.47027 57.690148 486.880728 136.24931 483.508918 C 217.779445 480.031056 309.448964 484.329256 306.078532 574.120466 " transform="matrix(1.251694,0,0,1.252341,282.938025,-400.010258)"/>
<path id="entP_toC9" style="fill:none;stroke-width:1;stroke-linecap:round;stroke-linejoin:round;stroke:rgb(0%,0%,0%);stroke-opacity:1;stroke-miterlimit:3;" d="M 0.000850349 426.881041 C -16.380075 505.499426 76.531511 500.811331 162.131131 489.061462 C 253.760081 476.478777 337.019123 455.820592 338.838532 575.749109 " transform="matrix(1.251694,0,0,1.252341,241.932529,-402.061592)"/>
<path id="entP_toC10" style="fill:none;stroke-width:1;stroke-linecap:round;stroke-linejoin:round;stroke:rgb(0%,0%,0%);stroke-opacity:1;stroke-miterlimit:3;" d="M -0.00100075 426.881041 C -10.068607 492.539323 66.870874 502.701541 161.629957 491.759533 C 259.650245 480.440108 376.738442 446.541096 371.570445 574.18953 " transform="matrix(1.251694,0,0,1.252341,200.927034,-402.061592)"/>
<path id="entP_toC11" style="fill:none;stroke-width:1;stroke-linecap:round;stroke-linejoin:round;stroke:rgb(0%,0%,0%);stroke-opacity:1;stroke-miterlimit:3;" d="M -0.00108915 426.881483 C -17.199657 489.941506 39.411124 499.08064 136.011461 489.199146 C 241.259454 478.428693 393.980611 445.100486 403.548894 577.390228 " transform="matrix(1.251694,0,0,1.252341,160.946676,-404.112927)"/>
<path id="entP_toEntExt" style="fill:none;stroke-width:1;stroke-linecap:round;stroke-linejoin:round;stroke:rgb(0%,0%,0%);stroke-opacity:1;stroke-miterlimit:3;" d="M 0.000292601 426.881455 C -26.211061 428.519013 -29.519078 435.150344 -32.471327 439.551476 C -35.701325 444.389291 -38.491294 446.54151 -37.901468 474.610815 " transform="matrix(1.251694,0,0,1.252341,713.495728,-172.312111)"/>
<path id="entP_toExtExt1" style="fill:none;stroke-width:1;stroke-linecap:round;stroke-linejoin:round;stroke:rgb(0%,0%,0%);stroke-opacity:1;stroke-miterlimit:3;" d="M -0.000600868 419.681196 C -5.290307 419.681196 -15.879082 419.681196 -21.181272 419.681196 " transform="matrix(1.251694,0,0,1.252341,738.567158,-163.205087)"/>
</g>
</svg>
