<?xml version="1.0" encoding="UTF-8"?>
<svg xmlns="http://www.w3.org/2000/svg" xmlns:xlink="http://www.w3.org/1999/xlink" width="721pt" height="550pt" viewBox="0 0 721 550" version="1.1">
<g id="surface1">
<path id="extP_reverseFromA1" style="fill:none;stroke-width:1;stroke-linecap:round;stroke-linejoin:round;stroke:rgb(0%,0%,0%);stroke-opacity:1;stroke-miterlimit:3;" d="M 0.000906517 429.461017 C -26.640158 432.789808 -37.679829 429.378637 -42.668735 421.820969 C -47.599666 414.348733 -46.620193 402.818485 -44.539193 382.839636 " transform="matrix(1.280184,0,0,1.28026,715.760558,-314.700767)"/>
<path id="extP_reverseFromA2" style="fill:none;stroke-width:1;stroke-linecap:round;stroke-linejoin:round;stroke:rgb(0%,0%,0%);stroke-opacity:1;stroke-miterlimit:3;" d="M -0.000182053 429.458946 C -2.081181 439.451421 0.729083 456.708655 10.108837 463.518794 C 20.199548 470.841524 37.878889 466.090903 47.868907 466.090903 " transform="matrix(1.280184,0,0,1.28026,654.480702,-404.229365)"/>
<path id="extP_revereFromA3" style="fill:none;stroke-width:1;stroke-linecap:round;stroke-linejoin:round;stroke:rgb(0%,0%,0%);stroke-opacity:1;stroke-miterlimit:3;" d="M -0.00120209 429.460673 C -1.670273 442.778888 -1.328526 455.441109 3.370505 461.198606 C 9.518912 468.741017 23.161359 464.420607 49.530855 462.760788 " transform="matrix(1.280184,0,0,1.28026,652.349195,-442.598764)"/>
<path id="extP_reverseFromA4" style="fill:none;stroke-width:1;stroke-linecap:round;stroke-linejoin:round;stroke:rgb(0%,0%,0%);stroke-opacity:1;stroke-miterlimit:3;" d="M -0.000182053 429.458716 C -1.980488 446.560342 0.588722 454.639754 5.699681 460.119597 C 11.729087 466.59106 21.301074 469.419464 47.868907 466.090673 " transform="matrix(1.280184,0,0,1.28026,654.480702,-489.494697)"/>
<path id="extP_reverseFromA5" style="fill:none;stroke-width:1;stroke-linecap:round;stroke-linejoin:round;stroke:rgb(0%,0%,0%);stroke-opacity:1;stroke-miterlimit:3;" d="M 0.000837986 429.461365 C -4.991119 447.771241 -0.109009 452.900203 4.47102 455.951341 C 11.220537 460.430411 17.320123 460.409053 46.200855 457.769819 " transform="matrix(1.280184,0,0,1.28026,656.612208,-525.732462)"/>
<path id="extP_reverseFromD1" style="fill:none;stroke-width:1;stroke-linecap:round;stroke-linejoin:round;stroke:rgb(0%,0%,0%);stroke-opacity:1;stroke-miterlimit:3;" d="M -0.00111849 429.459322 C -11.599181 429.871225 -16.881014 427.97952 -20.869087 423.210592 C -26.480463 416.501141 -29.540935 404.089113 -28.671309 377.840178 " transform="matrix(1.280184,0,0,1.28026,620.310026,-478.831409)"/>
<path id="extP_reverseFromD2" style="fill:none;stroke-width:1;stroke-linecap:round;stroke-linejoin:round;stroke:rgb(0%,0%,0%);stroke-opacity:1;stroke-miterlimit:3;" d="M -0.0000974593 429.46122 C -14.829507 428.460446 -18.250035 426.019536 -21.780411 422.651081 C -26.790676 417.84859 -31.999277 411.151343 -28.670288 377.851229 " transform="matrix(1.280184,0,0,1.28026,573.422,-478.841651)"/>
<path id="extP_reverseFromD3" style="fill:none;stroke-width:1;stroke-linecap:round;stroke-linejoin:round;stroke:rgb(0%,0%,0%);stroke-opacity:1;stroke-miterlimit:3;" d="M 0.000655734 429.458475 C -6.071469 429.101492 -9.528613 430.230413 -15.881458 425.559121 C -23.909478 419.649068 -36.569399 404.469659 -28.660381 377.830178 " transform="matrix(1.280184,0,0,1.28026,530.776504,-478.818607)"/>
<path id="extP_reverseFromD4" style="fill:none;stroke-width:1;stroke-linecap:round;stroke-linejoin:round;stroke:rgb(0%,0%,0%);stroke-opacity:1;stroke-miterlimit:3;" d="M -0.0000891285 429.460572 C -9.529358 429.030361 -12.861398 428.899162 -17.981511 426.070758 C -24.99039 422.180558 -35.340463 413.210213 -33.680546 381.579071 " transform="matrix(1.280184,0,0,1.28026,492.433708,-479.348634)"/>
<path id="extP_reverseFromD5" style="fill:none;stroke-width:1;stroke-linecap:round;stroke-linejoin:round;stroke:rgb(0%,0%,0%);stroke-opacity:1;stroke-miterlimit:3;" d="M -0.000597435 429.461305 C -5.288533 428.228645 -7.91877 429.699294 -14.86052 426.620696 C -23.929039 422.590143 -40.369545 410.791395 -33.708516 377.49128 " transform="matrix(1.280184,0,0,1.28026,451.977327,-478.376917)"/>
<path id="extP_reverseFromD6" style="fill:none;stroke-width:1;stroke-linecap:round;stroke-linejoin:round;stroke:rgb(0%,0%,0%);stroke-opacity:1;stroke-miterlimit:3;" d="M 0.000282116 429.459084 C -11.048543 427.7596 -13.480444 429.559771 -21.56949 425.72144 C -30.909577 421.291189 -47.798626 409.370395 -41.140649 376.07028 " transform="matrix(1.280184,0,0,1.28026,414.593389,-476.557667)"/>
<path id="extP_reverseFromD7" style="fill:none;stroke-width:1;stroke-linecap:round;stroke-linejoin:round;stroke:rgb(0%,0%,0%);stroke-opacity:1;stroke-miterlimit:3;" d="M 0.00134444 429.46018 C -11.889645 429.530356 -14.080492 430.421288 -22.700467 427.220645 C -32.278557 423.659968 -49.799229 415.031351 -41.978699 380.339917 " transform="matrix(1.280184,0,0,1.28026,366.64281,-477.773914)"/>
<path id="extP_reverseFromD8" style="fill:none;stroke-width:1;stroke-linecap:round;stroke-linejoin:round;stroke:rgb(0%,0%,0%);stroke-opacity:1;stroke-miterlimit:3;" d="M 0.000597527 429.459709 C -10.840738 429.209515 -10.779712 429.99976 -16.018826 427.839555 C -23.268759 424.858593 -40.688738 416.229977 -37.359749 376.269229 " transform="matrix(1.280184,0,0,1.28026,311.706266,-476.81628)"/>
<path id="extP_reverseFromD9" style="fill:none;stroke-width:1;stroke-linecap:round;stroke-linejoin:round;stroke:rgb(0%,0%,0%);stroke-opacity:1;stroke-miterlimit:3;" d="M -0.000119749 429.459112 C -5.858652 428.150174 -9.331052 425.919793 -12.690554 423.33853 C -18.829808 418.630625 -24.599852 412.751083 -21.679739 376.119126 " transform="matrix(1.280184,0,0,1.28026,249.007966,-476.631922)"/>
<path id="extP_reverseFromD10" style="fill:none;stroke-width:1;stroke-linecap:round;stroke-linejoin:round;stroke:rgb(0%,0%,0%);stroke-opacity:1;stroke-miterlimit:3;" d="M 0.0011405 429.460652 C 1.889907 429.518624 -0.660996 429.979345 -5.491233 428.450725 C -14.361417 425.649781 -30.920924 416.108874 -29.248801 376.151178 " transform="matrix(1.280184,0,0,1.28026,213.93604,-476.66905)"/>
<path id="extP_reverseFromD11" style="fill:none;stroke-width:1;stroke-linecap:round;stroke-linejoin:round;stroke:rgb(0%,0%,0%);stroke-opacity:1;stroke-miterlimit:3;" d="M 0.000331844 429.459777 C 5.138753 429.679459 3.021137 430.799226 -2.071514 428.968544 C -11.27124 425.661111 -30.158903 412.709032 -26.829914 376.080126 " transform="matrix(1.280184,0,0,1.28026,166.073794,-476.581992)"/>
<path id="extP_reverseFromB1" style="fill:none;stroke-width:1;stroke-linecap:round;stroke-linejoin:round;stroke:rgb(0%,0%,0%);stroke-opacity:1;stroke-miterlimit:3;" d="M -0.000307028 429.458532 C -1.669378 410.980844 3.539223 400.271351 8.070431 393.690048 C 11.890682 388.11867 15.228825 385.500794 27.058788 384.091169 " transform="matrix(1.280184,0,0,1.28026,572.949612,-282.19368)"/>
<path id="extP_toExtFromB8Reverse" style="fill:none;stroke-width:1;stroke-linecap:round;stroke-linejoin:round;stroke:rgb(0%,0%,0%);stroke-opacity:1;stroke-miterlimit:3;" d="M 0.000351356 429.458911 C -54.288712 432.519202 -67.711463 435.341504 -109.828816 430.661059 C -143.521477 426.920364 -195.589181 418.380231 -196.309292 498.890596 " transform="matrix(1.280184,0,0,1.28026,304.608925,-348.545727)"/>
<path id="extP_toExtFromB6Reverse" style="fill:none;stroke-width:1;stroke-linecap:round;stroke-linejoin:round;stroke:rgb(0%,0%,0%);stroke-opacity:1;stroke-miterlimit:3;" d="M -0.000542679 429.459982 C -100.520136 439.919281 -158.830838 435.159506 -209.238623 437.829252 C -241.979274 439.571451 -271.400089 444.441067 -264.620059 505.088527 " transform="matrix(1.280184,0,0,1.28026,392.305382,-359.465066)"/>
<path id="extP_toExtFromB7Reverse" style="fill:none;stroke-width:1;stroke-linecap:round;stroke-linejoin:round;stroke:rgb(0%,0%,0%);stroke-opacity:1;stroke-miterlimit:3;" d="M 0.00141558 429.460264 C -71.130927 428.801219 -82.161444 432.310027 -128.629978 427.449565 C -164.29074 423.721075 -220.801163 415.0711 -227.230292 495.529596 " transform="matrix(1.280184,0,0,1.28026,344.1935,-344.242772)"/>
<path id="extP_reverseFromB5" style="fill:none;stroke-width:1;stroke-linecap:round;stroke-linejoin:round;stroke:rgb(0%,0%,0%);stroke-opacity:1;stroke-miterlimit:3;" d="M 0.000475525 429.458532 C 0.418506 410.73065 -3.081356 395.688543 1.568853 388.68008 C 5.581338 382.629674 15.650689 382.550344 27.05957 377.430536 " transform="matrix(1.280184,0,0,1.28026,402.429079,-282.19368)"/>
<path id="extP_reverseFromB6" style="fill:none;stroke-width:1;stroke-linecap:round;stroke-linejoin:round;stroke:rgb(0%,0%,0%);stroke-opacity:1;stroke-miterlimit:3;" d="M 0.000413954 429.461146 C -1.659503 411.77065 -1.439808 399.581356 2.0509 391.831467 C 5.559917 384.029708 12.361306 380.731429 27.059509 370.14093 " transform="matrix(1.280184,0,0,1.28026,357.667439,-283.52515)"/>
<path id="extP_reverseFromB7" style="fill:none;stroke-width:1;stroke-linecap:round;stroke-linejoin:round;stroke:rgb(0%,0%,0%);stroke-opacity:1;stroke-miterlimit:3;" d="M 0.000352996 429.460662 C -1.250688 412.389548 3.008953 398.479412 8.501327 391.480103 C 13.178999 385.509027 18.759861 384.569276 27.471376 382.421276 " transform="matrix(1.280184,0,0,1.28026,310.241736,-284.325313)"/>
<path id="extP_reverseFromB8" style="fill:none;stroke-width:1;stroke-linecap:round;stroke-linejoin:round;stroke:rgb(0%,0%,0%);stroke-opacity:1;stroke-miterlimit:3;" d="M 0.00131208 429.459016 C -0.630311 409.690696 0.840425 400.378624 4.968859 392.689758 C 8.691468 385.751471 14.571359 380.131276 32.049313 376.799433 " transform="matrix(1.280184,0,0,1.28026,264.947539,-281.393517)"/>
<path id="extP_reverseFromB9" style="fill:none;stroke-width:1;stroke-linecap:round;stroke-linejoin:round;stroke:rgb(0%,0%,0%);stroke-opacity:1;stroke-miterlimit:3;" d="M 0.000229855 429.461146 C -1.049424 410.928536 1.419093 400.539413 4.540592 394.330348 C 7.28983 388.89017 10.539485 386.650635 29.140324 386.790988 " transform="matrix(1.280184,0,0,1.28026,220.718456,-283.52515)"/>
<path id="extP_reverseFromB10" style="fill:none;stroke-width:1;stroke-linecap:round;stroke-linejoin:round;stroke:rgb(0%,0%,0%);stroke-opacity:1;stroke-miterlimit:3;" d="M 0.00118893 429.461185 C -0.62128 411.749332 3.05861 401.180192 7.000914 395.090121 C 10.668599 389.408903 14.571236 387.63009 32.879148 387.63009 " transform="matrix(1.280184,0,0,1.28026,175.424259,-284.591607)"/>
<path id="extP_reverseFromB11" style="fill:none;stroke-width:1;stroke-linecap:round;stroke-linejoin:round;stroke:rgb(0%,0%,0%);stroke-opacity:1;stroke-miterlimit:3;" d="M -0.000913935 429.459578 C -0.87054 410.521167 3.87121 393.919928 10.709215 386.929772 C 16.790493 380.720707 24.540843 382.090668 38.711167 384.501067 " transform="matrix(1.280184,0,0,1.28026,131.727733,-282.726268)"/>
<path id="extP_reverseFromE1" style="fill:none;stroke-width:1;stroke-linecap:round;stroke-linejoin:round;stroke:rgb(0%,0%,0%);stroke-opacity:1;stroke-miterlimit:3;" d="M -0.000561017 429.461017 C 26.640503 432.789808 33.078786 426.058999 36.319286 416.679802 C 38.430799 410.550067 39.181423 403.279206 38.71152 404.481355 " transform="matrix(1.280184,0,0,1.28026,12.363999,-314.700767)"/>
<path id="extP_reverseFromE2" style="fill:none;stroke-width:1;stroke-linecap:round;stroke-linejoin:round;stroke:rgb(0%,0%,0%);stroke-opacity:1;stroke-miterlimit:3;" d="M 0.000450226 435.190875 C 26.641514 436.850694 40.219883 429.949021 43.451229 420.499648 C 44.54055 417.280698 44.439857 413.759685 42.718913 441.729462 " transform="matrix(1.280184,0,0,1.28026,8.100986,-362.53257)"/>
<path id="extP_reverseFromE3" style="fill:none;stroke-width:1;stroke-linecap:round;stroke-linejoin:round;stroke:rgb(0%,0%,0%);stroke-opacity:1;stroke-miterlimit:3;" d="M -0.00107983 429.460788 C 35.800043 432.789579 43.760934 428.978708 47.410311 420.539262 C 50.010035 414.510214 50.409757 406.119586 51.200049 396.160673 " transform="matrix(1.280184,0,0,1.28026,4.903726,-399.966099)"/>
<path id="extP_reverseFromE4" style="fill:none;stroke-width:1;stroke-linecap:round;stroke-linejoin:round;stroke:rgb(0%,0%,0%);stroke-opacity:1;stroke-miterlimit:3;" d="M 0.000450226 429.429933 C 29.970503 434.418543 40.589092 430.769383 45.779385 423.040851 C 48.769678 418.589242 49.950538 412.779876 49.910871 411.489245 " transform="matrix(1.280184,0,0,1.28026,8.100986,-446.817222)"/>
<path id="extP_reverseFromE5" style="fill:none;stroke-width:1;stroke-linecap:round;stroke-linejoin:round;stroke:rgb(0%,0%,0%);stroke-opacity:1;stroke-miterlimit:3;" d="M 0.000450226 429.460846 C 29.970503 437.781298 40.250396 428.96046 44.488678 425.061106 C 47.658998 422.128963 47.451508 421.970304 50.719471 408.389691 " transform="matrix(1.280184,0,0,1.28026,8.100986,-491.62633)"/>
<path id="extP_toExtFromC1" style="fill:none;stroke-width:1;stroke-linecap:round;stroke-linejoin:round;stroke:rgb(0%,0%,0%);stroke-opacity:1;stroke-miterlimit:3;" d="M -0.00129884 429.459561 C 19.978736 357.028608 -90.89093 386.450727 -193.601371 381.38889 C -308.361469 375.750388 -412.921009 327.060335 -413.000343 553.201494 " transform="matrix(1.280184,0,0,1.28026,582.009475,-418.085622)"/>
<path id="extP_toExtFromC2" style="fill:none;stroke-width:1;stroke-linecap:round;stroke-linejoin:round;stroke:rgb(0%,0%,0%);stroke-opacity:1;stroke-miterlimit:3;" d="M 0.000660235 429.461364 C 15.400666 352.868659 -103.439045 380.609601 -195.39969 378.159538 C -300.801394 375.34944 -370.881031 332.889811 -377.621394 549.038494 " transform="matrix(1.280184,0,0,1.28026,536.713999,-412.755898)"/>
<path id="extP_toExtFromC3" style="fill:none;stroke-width:1;stroke-linecap:round;stroke-linejoin:round;stroke:rgb(0%,0%,0%);stroke-opacity:1;stroke-miterlimit:3;" d="M 0.000598665 429.461364 C 17.069676 352.868659 -80.578627 374.110678 -163.129004 371.559927 C -259.898527 368.569813 -335.909929 332.889811 -342.650292 549.038494 " transform="matrix(1.280184,0,0,1.28026,491.952359,-412.755898)"/>
<path id="extP_toExtFromC4" style="fill:none;stroke-width:1;stroke-linecap:round;stroke-linejoin:round;stroke:rgb(0%,0%,0%);stroke-opacity:1;stroke-miterlimit:3;" d="M -0.000473536 429.459522 C 24.138509 362.859292 -108.538933 371.860148 -185.011083 375.561178 C -284.770899 380.378924 -288.881025 376.180559 -308.940394 552.368494 " transform="matrix(1.280184,0,0,1.28026,448.789669,-417.019165)"/>
<path id="extP_toExtFromC5" style="fill:none;stroke-width:1;stroke-linecap:round;stroke-linejoin:round;stroke:rgb(0%,0%,0%);stroke-opacity:1;stroke-miterlimit:3;" d="M -0.000535718 429.461364 C 27.058559 366.189925 -89.858822 367.691085 -158.52875 369.720091 C -251.139326 372.460013 -255.990922 376.17935 -275.86111 546.710476 " transform="matrix(1.280184,0,0,1.28026,406.692092,-412.755898)"/>
<path id="extP_toExtFromC6" style="fill:none;stroke-width:1;stroke-linecap:round;stroke-linejoin:round;stroke:rgb(0%,0%,0%);stroke-opacity:1;stroke-miterlimit:3;" d="M -0.000597288 429.461364 C 18.731449 366.189925 -65.478846 376.670583 -122.620893 377.048924 C -199.068633 377.561515 -227.030918 359.980861 -241.091394 549.038494 " transform="matrix(1.280184,0,0,1.28026,361.930452,-412.755898)"/>
<path id="extP_toExtFromC7" style="fill:none;stroke-width:1;stroke-linecap:round;stroke-linejoin:round;stroke:rgb(0%,0%,0%);stroke-opacity:1;stroke-miterlimit:3;" d="M 0.00137242 429.460443 C 6.119267 371.65054 -26.01112 383.080102 -72.10129 379.549935 C -129.191464 375.18986 -207.711049 347.869975 -204.461394 550.709596 " transform="matrix(1.280184,0,0,1.28026,315.037306,-414.887532)"/>
<path id="extP_toExtFromC8" style="fill:none;stroke-width:1;stroke-linecap:round;stroke-linejoin:round;stroke:rgb(0%,0%,0%);stroke-opacity:1;stroke-miterlimit:3;" d="M -0.000709798 429.459522 C -0.958824 380.949486 1.979596 386.710034 -33.199058 379.600884 C -76.271473 370.889886 -176.488986 342.880444 -169.910343 552.368494 " transform="matrix(1.280184,0,0,1.28026,270.809502,-417.019165)"/>
<path id="extP_toExtFromC9" style="fill:none;stroke-width:1;stroke-linecap:round;stroke-linejoin:round;stroke:rgb(0%,0%,0%);stroke-opacity:1;stroke-miterlimit:3;" d="M 0.0012593 429.460443 C 4.581289 387.830723 0.730524 385.450835 -23.881413 380.480532 C -58.739678 373.429354 -135.278958 361.191241 -135.361343 550.709596 " transform="matrix(1.280184,0,0,1.28026,226.580419,-414.887532)"/>
<path id="extP_toExtFromC10" style="fill:none;stroke-width:1;stroke-linecap:round;stroke-linejoin:round;stroke:rgb(0%,0%,0%);stroke-opacity:1;stroke-miterlimit:3;" d="M 0.00120714 429.460731 C 3.330196 396.160616 -14.318632 389.17046 -30.618777 388.209352 C -63.96969 386.259675 -91.678716 409.539854 -103.310343 555.698494 " transform="matrix(1.280184,0,0,1.28026,185.549236,-421.282432)"/>
<path id="extP_toExtFromC11"  style="fill:none;stroke-width:1;stroke-linecap:round;stroke-linejoin:round;stroke:rgb(0%,0%,0%);stroke-opacity:1;stroke-miterlimit:3;" d="M 0.00105686 429.458494 C 10.28095 384.768483 4.471239 304.261168 32.760015 275.720828 C 48.050173 260.300379 73.290682 260.05934 70.010514 304.880549 " transform="matrix(1.280184,0,0,1.28026,53.291616,-259.66238)"/>
<path id="extP_toExtFromB11Reverse" style="fill:none;stroke-width:1;stroke-linecap:round;stroke-linejoin:round;stroke:rgb(0%,0%,0%);stroke-opacity:1;stroke-miterlimit:3;" d="M -0.00141176 429.45964 C -43.949556 426.420707 -61.79977 428.159856 -72.601439 431.659511 C -83.189515 435.101194 -87.009766 440.221002 -98.760394 492.639545 " transform="matrix(1.280184,0,0,1.28026,179.720557,-340.546661)"/>
<path id="extP_toExtFromE1Reverse" style="fill:none;stroke-width:1;stroke-linecap:round;stroke-linejoin:round;stroke:rgb(0%,0%,0%);stroke-opacity:1;stroke-miterlimit:3;" d="M 5.938922 429.460179 C 7.940587 405.218892 9.670685 383.659554 10.110075 378.079024 C 10.470131 373.560289 9.991074 379.549672 12.059868 364.830985 " transform="matrix(1.280184,0,0,1.28026,46.920523,-265.035632)"/>
<path id="extP_toExtExt2" style="fill:none;stroke-width:1;stroke-linecap:round;stroke-linejoin:round;stroke:rgb(0%,0%,0%);stroke-opacity:1;stroke-miterlimit:3;" d="M -6.289006 429.458714 L -11.7112 631.48063 " transform="matrix(1.280184,0,0,1.28026,61.45343,-263.541568)"/>
<path id="extP_toExtFromD10Reverse" style="fill:none;stroke-width:1;stroke-linecap:round;stroke-linejoin:round;stroke:rgb(0%,0%,0%);stroke-opacity:1;stroke-miterlimit:3;" d="M 0.00105686 429.458494 C 10.329771 274.750567 34.450446 264.581125 53.899551 261.410993 C 64.319805 259.71151 73.409683 260.010521 108.179461 260.05934 " transform="matrix(1.280184,0,0,1.28026,53.291616,-259.66238)"/>
<path id="extP_toExtFromE2Reverse" style="fill:none;stroke-width:1;stroke-linecap:round;stroke-linejoin:round;stroke:rgb(0%,0%,0%);stroke-opacity:1;stroke-miterlimit:3;" d="M 5.250157 429.458494 C 10.980533 362.321264 9.158896 389.83032 12.310908 348.481304 C 12.420756 347.068628 12.530603 345.570519 16.750298 360.051218 " transform="matrix(1.280184,0,0,1.28026,46.571801,-259.66238)"/>
<path id="extP_toExtFromE3Reverse" style="fill:none;stroke-width:1;stroke-linecap:round;stroke-linejoin:round;stroke:rgb(0%,0%,0%);stroke-opacity:1;stroke-miterlimit:3;" d="M 2.348757 429.458494 C 9.229481 362.019201 7.569563 374.690575 7.560409 371.679103 C 7.551255 368.798829 9.049453 351.651436 15.649455 287.778924 " transform="matrix(1.280184,0,0,1.28026,50.286127,-259.66238)"/>
<path id="extP_toExtFromE4Reverse" style="fill:none;stroke-width:1;stroke-linecap:round;stroke-linejoin:round;stroke:rgb(0%,0%,0%);stroke-opacity:1;stroke-miterlimit:3;" d="M 1.530808 429.458494 C 10.05009 336.288959 8.170478 350.708635 8.408481 344.819939 C 8.588508 340.600216 9.870062 325.921194 16.470065 262.060886 " transform="matrix(1.280184,0,0,1.28026,51.337159,-259.66238)"/>
<path id="extP_toExtFromE5Reverse" style="fill:none;stroke-width:1;stroke-linecap:round;stroke-linejoin:round;stroke:rgb(0%,0%,0%);stroke-opacity:1;stroke-miterlimit:3;" d="M 1.088606 429.458494 C 10.489719 297.609689 8.359898 313.8692 8.948803 304.309987 C 9.250883 299.300019 10.300537 287.238872 16.909693 223.378564 " transform="matrix(1.280184,0,0,1.28026,51.895447,-259.66238)"/>
<path id="extP_toExtFromD10Reverse" style="fill:none;stroke-width:1;stroke-linecap:round;stroke-linejoin:round;stroke:rgb(0%,0%,0%);stroke-opacity:1;stroke-miterlimit:3;" d="M 0.00105686 429.458494 C 12.999675 280.980989 29.360846 264.330932 56.538942 260.318686 C 73.229656 257.859469 93.990828 260.160027 129.95062 259.931192 " transform="matrix(1.280184,0,0,1.28026,53.291616,-259.66238)"/>
<path id="extP_toExtFromD9Reverse" style="fill:none;stroke-width:1;stroke-linecap:round;stroke-linejoin:round;stroke:rgb(0%,0%,0%);stroke-opacity:1;stroke-miterlimit:3;" d="M 0.00105686 429.458494 C 10.070409 319.291072 9.850714 272.019799 54.439635 260.559726 C 86.100118 252.419291 140.370873 262.350744 153.259644 259.931192 " transform="matrix(1.280184,0,0,1.28026,53.291616,-259.66238)"/>
<path id="extP_toExtFromD8Reverse" style="fill:none;stroke-width:1;stroke-linecap:round;stroke-linejoin:round;stroke:rgb(0%,0%,0%);stroke-opacity:1;stroke-miterlimit:3;" d="M 0.00105686 429.458494 C 23.389415 313.210155 -2.501025 273.06939 54.409122 261.24013 C 96.709553 252.440649 184.761459 259.281299 202.340106 259.870169 " transform="matrix(1.280184,0,0,1.28026,53.291616,-259.66238)"/>
<path id="extP_toExtFromD7Reverse" style="fill:none;stroke-width:1;stroke-linecap:round;stroke-linejoin:round;stroke:rgb(0%,0%,0%);stroke-opacity:1;stroke-miterlimit:3;" d="M 0.00105686 429.458494 C 26.721455 313.210155 -3.330983 271.369906 62.861274 259.198919 C 115.200545 249.590887 227.739283 258.53072 245.320982 259.128743 " transform="matrix(1.280184,0,0,1.28026,53.291616,-259.66238)"/>
<path id="extP_toExtFromD6Reverse" style="fill:none;stroke-width:1;stroke-linecap:round;stroke-linejoin:round;stroke:rgb(0%,0%,0%);stroke-opacity:1;stroke-miterlimit:3;" d="M 0.00105686 429.458494 C 20.060426 359.828485 -6.949847 284.38911 50.109813 261.520834 C 105.44853 239.339065 239.840813 266.588774 282.849151 259.958652 " transform="matrix(1.280184,0,0,1.28026,53.291616,-259.66238)"/>
<path id="extP_toExtFromD5Reverse" style="fill:none;stroke-width:1;stroke-linecap:round;stroke-linejoin:round;stroke:rgb(0%,0%,0%);stroke-opacity:1;stroke-miterlimit:3;" d="M 0.00105686 429.458494 C 13.399397 386.471017 9.77138 305.710459 39.680406 272.099128 C 79.728965 227.100952 179.900708 266.588774 312.059426 258.600896 " transform="matrix(1.280184,0,0,1.28026,53.291616,-259.66238)"/>
<path id="extP_toExtFromD4Reverse" style="fill:none;stroke-width:1;stroke-linecap:round;stroke-linejoin:round;stroke:rgb(0%,0%,0%);stroke-opacity:1;stroke-miterlimit:3;" d="M 0.00105686 429.458494 C 17.439344 374.120013 6.518674 303.5411 35.728948 273.850481 C 76.119254 232.80963 193.219714 269.920616 343.69855 257.819805 " transform="matrix(1.280184,0,0,1.28026,53.291616,-259.66238)"/>
<path id="extP_toExtFromD3Reverse" style="fill:none;stroke-width:1;stroke-linecap:round;stroke-linejoin:round;stroke:rgb(0%,0%,0%);stroke-opacity:1;stroke-miterlimit:3;" d="M 0.00105686 429.458494 C 13.130881 391.398604 -1.729041 313.420683 28.741428 279.369989 C 73.040474 229.840874 213.199749 273.249407 373.711321 258.219504 " transform="matrix(1.280184,0,0,1.28026,53.291616,-259.66238)"/>
<path id="extP_toExtFromD2Reverse" style="fill:none;stroke-width:1;stroke-linecap:round;stroke-linejoin:round;stroke:rgb(0%,0%,0%);stroke-opacity:1;stroke-miterlimit:3;" d="M 0.00105686 429.458494 C 22.620483 384.850863 2.811321 310.101046 32.430473 277.569818 C 76.000253 229.718828 226.518756 273.249407 407.071389 258.21035 " transform="matrix(1.280184,0,0,1.28026,53.291616,-259.66238)"/>
<path id="extP_toExtFromD1Reverse" style="fill:none;stroke-width:1;stroke-linecap:round;stroke-linejoin:round;stroke:rgb(0%,0%,0%);stroke-opacity:1;stroke-miterlimit:3;" d="M 0.00105686 429.458494 C 23.819651 371.221432 -2.089096 302.570838 34.261264 273.920657 C 85.889577 233.20933 263.198658 273.249407 443.751292 258.21035 " transform="matrix(1.280184,0,0,1.28026,53.291616,-259.66238)"/>
<path id="extP_toExtFromB7Reverse" style="fill:none;stroke-width:1;stroke-linecap:round;stroke-linejoin:round;stroke:rgb(0%,0%,0%);stroke-opacity:1;stroke-miterlimit:3;" d="M 0.00169337 429.460117 C -46.800958 426.839189 -81.939944 429.798793 -101.428717 433.301499 C -118.65036 436.38925 -123.660626 439.901109 -132.149394 495.651494 " transform="matrix(1.280184,0,0,1.28026,222.464627,-344.406645)"/>
<path id="extP_toExtFromB10Reverse" style="fill:none;stroke-width:1;stroke-linecap:round;stroke-linejoin:round;stroke:rgb(0%,0%,0%);stroke-opacity:1;stroke-miterlimit:3;" d="M 0.00146988 429.460039 C -56.051256 426.180066 -91.480118 423.949685 -107.490387 431.611091 C -119.268477 437.249593 -120.540877 448.230637 -126.579437 481.710769 " transform="matrix(1.280184,0,0,1.28026,216.244212,-338.148733)"/>
<path id="extP_toExtFromB5Reverse" style="fill:none;stroke-width:1;stroke-linecap:round;stroke-linejoin:round;stroke:rgb(0%,0%,0%);stroke-opacity:1;stroke-miterlimit:3;" d="M 0.000351356 429.458911 C -69.688718 435.92122 -147.588885 420.689942 -176.289589 438.810647 C -196.678501 451.689499 -192.260192 481.370964 -196.309292 498.890596 " transform="matrix(1.280184,0,0,1.28026,304.608925,-348.545727)"/>
<path id="extP_toExtFromB9Reverse" style="fill:none;stroke-width:1;stroke-linecap:round;stroke-linejoin:round;stroke:rgb(0%,0%,0%);stroke-opacity:1;stroke-miterlimit:3;" d="M -0.00130335 429.460937 C -52.520602 422.62944 -103.92922 419.190808 -129.45045 429.579931 C -150.120083 437.988866 -153.799974 455.490191 -158.941446 490.770494 " transform="matrix(1.280184,0,0,1.28026,256.759481,-338.157695)"/>
<path id="extP_toExtFromB5Reverse" style="fill:none;stroke-width:1;stroke-linecap:round;stroke-linejoin:round;stroke:rgb(0%,0%,0%);stroke-opacity:1;stroke-miterlimit:3;" d="M -0.00131509 429.459922 C -92.740046 432.761253 -137.399147 433.109083 -201.400558 428.871053 C -247.100159 425.841273 -302.649417 420.471271 -298.661343 498.589545 " transform="matrix(1.280184,0,0,1.28026,435.634496,-348.164209)"/>
<path id="extP_reverseFromB4" style="fill:none;stroke-width:1;stroke-linecap:round;stroke-linejoin:round;stroke:rgb(0%,0%,0%);stroke-opacity:1;stroke-miterlimit:3;" d="M 0.000547726 429.460499 C 0.418578 410.729566 -3.050771 395.809503 1.498745 388.788836 C 5.48987 382.628589 15.650762 382.54926 26.63856 376.178485 " transform="matrix(1.280184,0,0,1.28026,445.593049,-280.594635)"/>
<path id="extP_toExtFromB4Reverse" style="fill:none;stroke-width:1;stroke-linecap:round;stroke-linejoin:round;stroke:rgb(0%,0%,0%);stroke-opacity:1;stroke-miterlimit:3;" d="M 0.000701498 429.458814 C -91.178805 433.699896 -125.908915 437.449744 -199.869831 429.019451 C -255.239061 422.709698 -332.589991 409.5715 -332.019394 498.469442 " transform="matrix(1.280184,0,0,1.28026,478.335039,-348.01826)"/>
<path id="extP_reverseFromB3" style="fill:none;stroke-width:1;stroke-linecap:round;stroke-linejoin:round;stroke:rgb(0%,0%,0%);stroke-opacity:1;stroke-miterlimit:3;" d="M 0.00128932 429.459885 C 0.41932 410.728952 -3.181236 395.259685 1.841235 388.290886 C 5.908642 382.631026 15.651503 382.548646 27.060384 380.760679 " transform="matrix(1.280184,0,0,1.28026,491.775693,-282.015724)"/>
<path id="extP_toExtFromB3Reverse" style="fill:none;stroke-width:1;stroke-linecap:round;stroke-linejoin:round;stroke:rgb(0%,0%,0%);stroke-opacity:1;stroke-miterlimit:3;" d="M 0.00133269 429.458628 C -92.661115 429.739333 -141.518831 434.489954 -224.050901 426.468513 C -287.231507 420.329625 -370.151094 406.7185 -369.488958 492.589714 " transform="matrix(1.280184,0,0,1.28026,526.412356,-344.365677)"/>
<path id="extP_reverseFromB2" style="fill:none;stroke-width:1;stroke-linecap:round;stroke-linejoin:round;stroke:rgb(0%,0%,0%);stroke-opacity:1;stroke-miterlimit:3;" d="M -0.00136921 429.460499 C 0.419713 410.729566 -3.049637 395.809503 1.49988 388.788836 C 5.491005 382.628589 15.648845 382.54926 26.639695 376.178485 " transform="matrix(1.280184,0,0,1.28026,530.853315,-280.594635)"/>
<path id="extP_toExtFromB2Reverse" style="fill:none;stroke-width:1;stroke-linecap:round;stroke-linejoin:round;stroke:rgb(0%,0%,0%);stroke-opacity:1;stroke-miterlimit:3;" d="M -0.000305193 429.458485 C -101.020315 429.958871 -138.820052 437.919289 -226.649211 428.180058 C -294.818723 420.619339 -393.120008 402.388793 -399.478956 496.760476 " transform="matrix(1.280184,0,0,1.28026,564.957422,-348.8069)"/>
<path id="extP_toExtFromB1Reverse" style="fill:none;stroke-width:1;stroke-linecap:round;stroke-linejoin:round;stroke:rgb(0%,0%,0%);stroke-opacity:1;stroke-miterlimit:3;" d="M -0.00126366 429.459118 C -107.599917 433.028949 -128.769966 440.211326 -230.711474 427.359935 C -308.370588 417.568835 -432.901009 396.159003 -432.980343 492.428494 " transform="matrix(1.280184,0,0,1.28026,607.587555,-340.280367)"/>
<path id="extP_toExtFromA1" style="fill:none;stroke-width:1;stroke-linecap:round;stroke-linejoin:round;stroke:rgb(0%,0%,0%);stroke-opacity:1;stroke-miterlimit:3;" d="M 0.000394724 429.460955 C -1.500854 452.118702 -145.138633 450.269713 -262.870716 444.460347 C -381.210011 438.62047 -473.368991 428.780551 -472.801446 517.678494 " transform="matrix(1.280184,0,0,1.28026,658.558088,-372.606938)"/>
<path id="extP_toExtFromA2" style="fill:none;stroke-width:1;stroke-linecap:round;stroke-linejoin:round;stroke:rgb(0%,0%,0%);stroke-opacity:1;stroke-miterlimit:3;" d="M 0.0000966223 429.459549 C 2.248919 480.718659 -142.319513 485.399103 -259.609154 474.909293 C -378.421404 464.27913 -469.250009 438.10037 -469.329343 541.030494 " transform="matrix(1.280184,0,0,1.28026,654.12097,-402.503574)"/>
<path id="extP_toExtFromA3" style="fill:none;stroke-width:1;stroke-linecap:round;stroke-linejoin:round;stroke:rgb(0%,0%,0%);stroke-opacity:1;stroke-miterlimit:3;" d="M -0.00120209 429.460673 C 14.559691 527.951392 -123.009015 522.871248 -239.740265 506.999231 C -362.018813 490.379685 -461.449086 461.900367 -467.951446 572.348494 " transform="matrix(1.280184,0,0,1.28026,652.349195,-442.598764)"/>
<path id="extP_toExtFromA4" style="fill:none;stroke-width:1;stroke-linecap:round;stroke-linejoin:round;stroke:rgb(0%,0%,0%);stroke-opacity:1;stroke-miterlimit:3;" d="M -0.000182053 429.458716 C 29.969871 572.648599 -144.568613 550.808557 -268.2111 539.989224 C -396.961495 528.730526 -470.519636 529.420083 -469.610343 608.978494 " transform="matrix(1.280184,0,0,1.28026,654.480702,-489.494697)"/>
<path id="extP_toExtFromA5" style="fill:none;stroke-width:1;stroke-linecap:round;stroke-linejoin:round;stroke:rgb(0%,0%,0%);stroke-opacity:1;stroke-miterlimit:3;" d="M 0.000837986 429.461365 C 28.799184 611.080325 -104.720422 584.221161 -232.988708 570.030321 C -361.379047 555.83948 -484.508913 554.329167 -471.281446 637.289596 " transform="matrix(1.280184,0,0,1.28026,656.612208,-525.732462)"/>
</g>
</svg>
